<svg width="18" height="17" viewBox="0 0 18 17" fill="none" xmlns="http://www.w3.org/2000/svg">
<path d="M4.50628 16.715V5.99238H0.945423V16.715H4.50665H4.50628ZM2.72659 4.52864C3.96808 4.52864 4.74098 3.70527 4.74098 2.6763C4.71775 1.62387 3.96808 0.823486 2.7502 0.823486C1.53149 0.823486 0.735535 1.62387 0.735535 2.6762C0.735535 3.70518 1.50816 4.52855 2.70326 4.52855H2.72632L2.72659 4.52864ZM6.47726 16.715H10.0378V10.7276C10.0378 10.4076 10.0611 10.0867 10.1551 9.85811C10.4124 9.21756 10.9983 8.55449 11.9822 8.55449C13.2704 8.55449 13.786 9.53769 13.786 10.9793V16.715H17.3465V10.567C17.3465 7.27357 15.59 5.74099 13.2473 5.74099C11.3266 5.74099 10.4831 6.81546 10.0144 7.54728H10.0381V5.99275H6.47745C6.52392 6.99865 6.47717 16.7153 6.47717 16.7153L6.47726 16.715Z" fill="#171717"/>
</svg>
