<svg width="156" height="54" viewBox="0 0 156 54" fill="none" xmlns="http://www.w3.org/2000/svg">
<path d="M156 21.3623H131.109V51.3935H156V21.3623Z" fill="white"/>
<path d="M84.7226 48.693H84.4177C83.1328 48.693 82.0875 47.6477 82.0875 46.3628H82.0004C80.9115 48.301 78.5378 49.3899 76.0333 49.3899C69.7397 49.3899 65.0575 44.9255 65.0575 38.806C65.0575 32.5994 70.2188 28.1133 76.2511 28.2222C82.2835 28.331 87.0527 33.3616 87.0527 39.394V46.3628C87.0527 47.6477 86.0074 48.693 84.7226 48.693ZM76.1205 32.9479C73.028 32.9479 70.3494 35.6918 70.3494 38.806C70.3494 41.8984 73.028 44.6642 76.1205 44.6642C79.2129 44.6642 81.8915 41.9202 81.8915 38.806C81.8915 35.6918 79.2129 32.9479 76.1205 32.9479Z" fill="white"/>
<path d="M104.039 47.7564L96.7654 38.8494V46.0578C96.7654 47.5169 95.5895 48.6928 94.1304 48.6928C92.6713 48.6928 91.4953 47.5169 91.4953 46.0578V24.9554C91.4953 23.4963 92.6713 22.3203 94.1304 22.3203C95.5895 22.3203 96.7654 23.4963 96.7654 24.9554V36.9112L102.449 29.8771C102.928 29.2673 103.669 28.9189 104.431 28.9189C106.587 28.9189 107.785 31.4451 106.391 33.1002L102.406 37.8694L107.959 44.5333C109.331 46.1884 108.155 48.6928 106.021 48.6928C105.237 48.6928 104.518 48.3444 104.039 47.7564Z" fill="white"/>
<path d="M125.424 47.7564L118.151 38.8494V46.0578C118.151 47.5169 116.975 48.6928 115.516 48.6928C114.057 48.6928 112.881 47.5169 112.881 46.0578V24.9554C112.881 23.4963 114.057 22.3203 115.516 22.3203C116.975 22.3203 118.151 23.4963 118.151 24.9554V36.9112L123.835 29.8771C124.314 29.2673 125.054 28.9189 125.816 28.9189C127.972 28.9189 129.17 31.4451 127.776 33.1002L123.791 37.8694L129.344 44.5333C130.716 46.1884 129.54 48.6928 127.406 48.6928C126.622 48.6928 125.904 48.3444 125.424 47.7564Z" fill="white"/>
<path d="M152.276 48.693H151.971C150.686 48.693 149.641 47.6477 149.641 46.3628H149.554C148.465 48.301 146.091 49.3899 143.587 49.3899C137.293 49.3899 132.611 44.9255 132.611 38.806C132.611 32.5994 137.772 28.1133 143.805 28.2222C149.837 28.331 154.606 33.3616 154.606 39.394V46.3628C154.606 47.6477 153.561 48.693 152.276 48.693ZM143.652 32.9479C140.56 32.9479 137.881 35.6918 137.881 38.806C137.881 41.8984 140.56 44.6642 143.652 44.6642C146.745 44.6642 149.423 41.9202 149.423 38.806C149.445 35.6918 146.766 32.9479 143.652 32.9479Z" fill="#171717"/>
<path d="M23.5712 39.7861L4.77722 31.5542C3.0568 30.8138 1.05327 31.576 0.312837 33.2964C-0.427597 35.0169 0.334615 37.0204 2.05504 37.7608L15.1215 43.4883L23.5712 39.7861Z" fill="#06C569"/>
<path d="M23.5716 47.1907L36.551 52.8746C38.2714 53.6151 40.2749 52.8528 41.0154 51.1324C41.7558 49.412 40.9936 47.4085 39.2732 46.668L32.0213 43.4885L23.5716 47.1907Z" fill="#06C569"/>
<path d="M30.0609 11.9327C29.8213 11.6931 29.4293 11.9327 29.4947 12.2593C29.6253 12.8038 29.7124 13.3264 29.756 13.8273C29.8867 15.2864 29.7778 17.1157 28.9938 18.4006C28.3187 19.5112 27.1863 19.7943 26.1192 19.0757C23.985 16.8326 27.1427 13.5007 27.6 10.038C27.6436 9.64604 27.6654 9.27583 27.6436 8.88383C27.4694 6.33587 26.5983 4.50656 24.7472 3.00391C23.2663 1.84971 21.1757 0.847942 19.0415 0.673722C18.7148 0.651945 18.5624 1.04394 18.8019 1.26172C21.2192 3.5048 21.2628 7.79496 19.0633 10.1905C18.2793 11.0398 16.9944 11.9545 15.8184 12.0416C15.0126 12.1069 14.2069 11.7802 13.6189 11.2358C13.1833 10.8438 12.5082 10.8438 12.0509 11.2358C9.19806 13.6095 7.34697 17.1593 7.21631 21.1446C7.21631 21.297 7.21631 21.4494 7.21631 21.6019C7.21631 22.6472 7.3252 23.6707 7.56475 24.6289C7.6083 24.8249 7.65186 25.0209 7.71719 25.2169C8.69718 28.7013 11.2234 31.5324 14.5335 33.035L20.7183 35.8443L26.8814 33.0568C30.2787 31.5106 32.8702 28.5707 33.7848 24.9556C33.959 24.237 34.0897 23.5183 34.155 22.7561C34.1768 22.3641 34.1986 21.9939 34.1986 21.6019C34.1333 17.8126 32.5871 14.3935 30.0609 11.9327Z" fill="#06C569"/>
<path opacity="0.2" d="M14.5117 33.057L20.653 35.8445L26.7942 33.057L20.653 20.9487L14.5117 33.057Z" fill="white"/>
<path d="M11.1581 52.3082C11.7896 52.7219 12.6389 52.526 13.0309 51.8944L16.2758 46.8638L13.9891 45.3829L10.7443 50.4353C10.3523 51.0669 10.5265 51.8944 11.1581 52.3082Z" fill="#06C569"/>
<path d="M37.2693 34.3852L40.1657 32.1421C39.2075 31.271 37.7919 31.0097 36.5289 31.5541L2.03333 46.6677C0.530683 47.321 -0.253306 48.9325 0.0733557 50.4787L3.38353 49.9125L1.53245 52.5912C2.46888 53.2009 3.66664 53.3534 4.75551 52.8743L39.251 37.7607C40.9497 37.0203 41.7337 35.0603 41.015 33.3616L37.2693 34.3852Z" fill="#06C569"/>
<path d="M62.9229 45.9273C62.9229 47.7784 61.2896 48.7801 58.5021 48.7801C55.8235 48.7801 53.0359 47.9308 53.0359 42.2904V32.0986H52.1431C50.8146 32.0986 49.9435 31.2057 49.9435 29.9862C49.9435 28.7666 50.7929 27.8738 52.1431 27.8738H53.0359V24.9338C53.0359 23.4529 54.299 22.2334 55.7364 22.2334C57.2172 22.2334 58.4368 23.4529 58.4368 24.9338V27.8738H60.7452C62.0736 27.8738 62.9011 28.7666 62.9011 29.9862C62.9011 31.2057 62.0954 32.0986 60.7452 32.0986H58.4368V42.4647C58.4368 43.5318 58.7634 44.098 59.5474 44.098C59.9176 44.098 60.5492 43.9455 60.9629 43.9891C62.1825 43.9455 62.9229 44.686 62.9229 45.9273Z" fill="white"/>
</svg>
