<svg width="102" height="102" viewBox="0 0 102 102" fill="none" xmlns="http://www.w3.org/2000/svg">
<g clip-path="url(#clip0_13_2407)">
<path d="M87.0631 87.0624C106.98 67.1457 106.98 34.8543 87.0631 14.9376C67.1463 -4.97918 34.8549 -4.97918 14.9382 14.9376C-4.97856 34.8543 -4.97856 67.1457 14.9382 87.0624C34.8549 106.979 67.1463 106.979 87.0631 87.0624Z" fill="#171717"/>
<path d="M15.6301 79.0581C43.7958 79.0581 66.6301 56.2238 66.6301 28.0581C66.6301 17.9304 63.6652 8.49767 58.5737 0.562622C83.1484 4.22262 102 25.4076 102 51C102 79.1657 79.1657 102 51 102C32.962 102 17.125 92.6279 8.0564 78.4954C10.5277 78.8623 13.0568 79.0581 15.6301 79.0581Z" fill="white"/>
<g opacity="0.15">
<path d="M88.8484 54.234C92.7883 52.569 94.6324 48.0252 92.9673 44.0853C91.3022 40.1454 86.7585 38.3013 82.8186 39.9664C78.8787 41.6315 77.0346 46.1752 78.6997 50.1151C80.3648 54.055 84.9085 55.8991 88.8484 54.234Z" fill="#3C1E66"/>
</g>
<g opacity="0.15">
<path d="M70.8386 66.7665C71.3353 64.6488 70.0212 62.5293 67.9034 62.0326C65.7857 61.5359 63.6663 62.85 63.1695 64.9677C62.6728 67.0855 63.9869 69.2049 66.1047 69.7016C68.2224 70.1983 70.3418 68.8842 70.8386 66.7665Z" fill="#3C1E66"/>
</g>
</g>
<defs>
<clipPath id="clip0_13_2407">
<rect width="102" height="102" fill="white"/>
</clipPath>
</defs>
</svg>
