<svg width="618" height="600" viewBox="0 0 618 600" fill="none" xmlns="http://www.w3.org/2000/svg">
<g clip-path="url(#clip0_8_371)">
<path d="M497.857 141.567C498.564 140.728 503.438 141.252 502.285 134.988C501.682 131.921 502.337 131.213 504.276 132.943C513.291 140.885 534.882 137.897 515.596 141.252C512.19 141.829 495.865 143.978 497.883 141.567H497.857ZM581.682 280.145C579.664 277.891 575.681 278.284 575.681 280.748C575.681 285.44 598.452 285.702 585.298 282.399C583.778 282.006 582.809 281.403 581.708 280.145H581.682ZM616.873 256.791C615.327 255.245 608.698 254.432 608.278 255.743C607.597 257.892 606.077 259.15 603.326 259.858C600.601 260.565 602.173 261.378 607.126 261.876C610.06 262.164 618.026 257.971 616.873 256.791ZM502.521 214.539C503.962 213.097 506.635 211.996 509.439 211.577C512.766 211.131 510.225 209.821 503.202 208.3C499.376 207.497 497.429 207.933 497.359 209.611C497.202 213.228 495.76 214.643 491.489 215.351C483.418 216.688 498.721 218.287 502.495 214.512L502.521 214.539ZM269.807 315.897C277.616 302.058 298.107 288.035 303.059 278.31C314.563 255.585 327.429 257.42 341.238 241.72C357.196 223.581 367.441 214.486 369.197 216.478L409.655 176.008L571.2 337.6C574.502 339.461 580.66 342.082 584.852 349.814C585.979 351.859 586.294 353.012 588.311 353.274C592.399 353.746 592.818 358.569 605.344 369.578C628.56 389.865 601.308 365.148 595.334 353.536C594.731 352.383 593.971 351.177 593.631 350.837C584.093 341.505 594.286 340.981 598.976 341.505C597.325 336.997 582.73 328.741 575.314 327.168C569.366 325.91 565.619 321.166 568.737 318.833C570.152 317.784 570.152 317.758 567.06 317.444C559.802 316.631 552.15 301.953 568.895 305.046C573.402 305.885 570.283 305.858 571.62 296.265C572.196 292.176 571.489 295.007 566.746 299.699C562.894 303.552 549.137 294.692 556.343 294.535C561.741 294.43 568.58 285.125 565.357 283.841C553.277 278.835 561.112 261.693 579.271 269.713C581.918 270.866 581.97 270.866 583.595 269.451C589.307 264.445 582.94 264.523 579.035 254.406C577.594 250.605 577.516 251.549 576.756 255.035C576.336 256.94 576.852 258.477 578.302 259.648C587.211 266.882 576.258 269.241 570.074 263.055C567.506 260.487 566.615 260.513 564.807 263.291C560.3 270.264 544.473 272.098 536.14 266.62C530.008 262.584 540.044 255.795 552.203 261.561C556.186 263.501 546.831 257.289 546.49 256.922C544.735 255.166 523.457 254.117 525.082 255.716C531.581 262.243 517.404 264.287 508.888 258.049C506.216 256.083 507.106 253.253 510.198 253.908C511.928 254.275 510.461 253.226 508.233 252.492C500.031 249.819 500.005 241.851 510.696 245.782C514.181 247.067 513.448 245.625 509.543 243.581C505.901 241.641 503.988 241.012 500.11 240.383C482.475 237.604 462.691 222.743 463.556 217.002C463.713 216.006 463.146 215.508 461.853 215.508C453.808 215.508 452.289 202.56 467.539 209.427C469.924 210.502 481.191 202.534 474.902 204.578C469.295 206.361 460.569 202.586 455.381 199.126C451.057 196.243 449.459 195.588 448.856 192.39C447.939 187.41 453.022 180.333 459.573 181.67C462.22 182.22 463.975 183.924 461.984 186.126C461.303 186.886 463.215 186.571 464.211 186.362C464.735 186.204 465.548 186.309 466.255 186.178C469.19 185.89 472.361 184.894 472.544 182.823C473.435 172.601 489.602 183.741 492.59 178.865C492.59 178.865 483.471 176.978 479.095 174.488C477.287 173.44 476.317 173.046 473.776 173.492C466.805 174.671 463.609 170.216 464.211 164.895C464.578 161.199 463.084 158.735 462.377 161.828C459.678 172.155 440.995 163.191 452.76 158.499C455.276 157.503 455.328 157.556 453.18 156.245C446.419 152.654 453.232 144.712 471.339 145.21C477.051 145.865 476.763 146.285 479.567 139.444C480.588 137.006 480.562 136.98 478.152 138.998C471.653 144.398 462.691 141.147 456.376 135.617C454.07 133.677 453.625 132.681 447.572 135.827C436.514 141.436 426.976 143.48 422.652 145C416.547 147.176 407.611 144.765 411.568 140.151C403.812 143.9 402.292 130.06 419.246 123.743C430.382 119.733 430.775 120.886 431.431 117.741C433.736 105.893 457.11 102.984 468.666 116.352C471.234 119.34 469.426 119.497 471.994 114.438C474.3 109.904 476.003 109.851 471.312 109.51C463.687 109.039 458.682 105.972 457.11 103.849C450.14 94.675 476.343 84.6885 483.811 88.227C484.414 88.5154 490.179 86.366 484.44 85.7632C474.09 84.9506 456.088 72.1596 468.535 68.2541C474.902 66.3669 474.85 66.2883 466.936 65.9738C455.512 65.5282 452.708 67.8085 454.857 72.4741C467.749 100.468 418.25 106.182 414.582 104.504C411.437 102.984 411.306 98.9474 415.106 90.3501C416.189 87.9562 415.35 87.3009 412.59 88.3843C403.576 91.7655 397.942 95.8021 394.484 98.9474C390.317 102.879 390.422 102.774 394.038 101.988C401.637 100.363 407.821 105.71 404.048 110.061C401.794 112.708 395.663 117.138 391.916 119.051C388.142 121.253 388.168 121.332 390.972 121.83C395.82 122.695 385.05 145.892 377.923 140.676C368.883 133.887 389.138 115.408 376.953 125.237C351.955 146.232 346.793 121.358 356.462 118.973C359.869 118.029 360.707 119.209 359.869 118.029C358.087 115.565 354.261 114.543 349.204 118.737C345.299 122.066 341.657 127.098 340.53 132.55C339.404 137.425 339.587 137.714 342.391 139.784C346.033 142.458 345.142 158.735 335.447 153.912C333.482 152.89 333.351 152.916 332.171 156.088C331.202 158.683 326.59 174.016 320.616 174.96C317.314 175.484 315.611 170.163 317.969 160.334C318.808 156.9 317.838 158.866 315.82 161.907C313.803 164.895 310.737 168.669 307.409 168.224C292.028 166.127 301.697 143.9 308.536 157.005C309.584 159.023 310.475 155.642 310.134 151.475C309.898 147.333 302.299 141.095 298.133 139.837C288.962 162.772 276.358 157.398 277.904 173.754C278.061 175.432 281.284 181.722 281.546 178.446C282.463 166.834 293.993 170.792 291.294 184.501C285.686 212.861 272.663 205.443 282.201 191.263C286.001 185.575 281.625 188.485 273.921 195.457C266.505 202.167 264.514 202.691 270.043 201.669C280.812 199.651 265.012 226.648 262.444 204.919C262.26 203.346 262.365 203.32 261.238 204.972C259.404 207.566 259.299 208.667 260.452 213.805C261.317 217.684 258.304 222.481 254.792 222.9C252.775 223.162 252.775 222.848 254.792 226.438C272.034 256.66 228.222 284.627 239.175 242.113C240.066 238.732 240.066 237.945 239.28 237.159C236.004 233.882 224.449 229.584 222.981 231.052C222.981 231.052 243.21 244.026 222.064 264.943C219.251 267.721 217.566 270.342 217.007 272.806C214.622 283.238 217.059 303.342 219.889 296.92C241.481 279.254 234.039 339.278 212.316 317.994C210.351 316.081 210.692 316.684 210.849 321.218C211.294 334.114 203.224 371.884 197.564 375.213C196.219 376.017 195.232 378.018 194.603 381.215C193.686 385.75 194.052 388.895 194.681 391.071L269.859 315.871L269.807 315.897ZM233.751 202.927C234.091 199.782 237.21 197.161 239.227 198.366C240.485 199.126 240.459 199.153 241.062 197.265C241.769 195.011 241.062 190.634 239.018 184.343C238.633 183.19 238.205 183.347 237.734 184.815C235.349 192.023 230.685 188.747 232.624 201.354C232.965 203.661 233.567 204.526 233.725 202.901L233.751 202.927ZM473.566 442.471C477.732 443.834 480.615 444.306 482.108 443.808C483.34 443.414 483.314 443.414 482.842 442.576C482.056 441.239 483.785 439.142 485.855 438.932C486.93 438.828 486.353 438.434 484.833 438.198C476.474 436.94 478.649 440.033 473.88 441.58C472.413 442.051 472.413 442.052 473.566 442.418V442.471ZM358.506 471.303C357.301 478.275 357.143 483.622 358.192 482.574C358.716 482.05 358.401 479.062 362.306 479.35C364.192 479.481 364.611 479.009 363.59 477.961C362.017 476.362 360.917 473.217 360.157 468.263C359.659 465.039 359.58 465.196 358.506 471.329V471.303ZM266.191 431.488C267.815 431.488 268.104 428.841 266.584 427.504C265.745 426.77 265.352 426.141 265.09 425.119C262.863 416.417 263.073 431.488 266.191 431.488ZM311.968 475.34C311.706 477.201 310.973 478.983 310.003 479.927C307.697 482.233 308.536 492.691 309.453 487.213C309.925 484.383 310.842 483.439 313.252 483.334C314.37 483.282 314.659 481.989 314.117 479.455C313.121 474.789 312.257 473.112 311.942 475.313L311.968 475.34ZM457.791 474.422C461.774 474.029 443.484 480.896 444.899 485.457C446.576 490.804 458.158 489.808 455.512 488.419C446.838 483.885 461.565 477.489 462.953 487.659C463.556 492.089 452.97 495.784 457.739 494.657C469.95 491.774 471.653 498.248 457.031 503.412C451.057 505.902 450.952 504.985 451.293 507.186C452.498 515.207 441.231 515.076 440.549 510.489C440.156 507.789 439.868 507.789 437.091 507.239C430.933 506.007 424.487 507.579 425.247 514.106C425.378 515.259 425.247 514.106 426.662 512.481C429.885 508.706 435.859 516.544 430.016 523.359C423.15 531.301 410.415 525.193 419.639 529.623C423.674 531.563 424.88 534.472 423.674 536.805C421.526 540.92 413.114 539.898 409.891 533.502C409.079 531.903 408.974 530.488 409.839 530.095C414.451 527.998 405.568 530.514 401.061 521.864C399.253 518.405 402.607 514.525 406.432 515.338C410.048 516.098 405.515 513.66 398.991 503.517C397.759 501.577 397.759 501.577 397.838 504.618C398.283 519.139 398.44 513.084 385.234 518.064C383.557 523.568 397.995 534.472 398.257 539.898C398.388 542.781 395.348 542.807 392.833 540.972C395.715 544.904 387.356 544.825 382.037 538.561C376.744 532.349 372.761 524.433 371.241 516.072C370.271 510.777 370.402 510.856 368.07 509.467C364.9 507.553 363.852 508.706 362.568 506.164C359.397 499.768 365.633 495.68 362.017 497.986C357.93 500.607 357.956 500.24 359.318 504.224C363.354 516.124 362.803 522.913 356.2 516.308C354.261 514.394 354.235 514.368 354.759 516.884C356.777 526.347 347.16 517.094 345.876 511.721C345.666 510.096 346.295 508.785 348.129 508.182C350.147 507.501 348.182 506.505 345.535 506.872C341.081 507.501 337.543 504.172 337.569 499.349C337.569 497.881 337.334 497.043 336.495 495.549C334.844 492.639 333.586 486.61 333.586 486.61C330.363 488.576 337.727 499.297 330.966 499.873C328.241 500.109 328.319 508.261 329.368 507.317C332.276 504.67 336.338 513.791 333.403 516.858C326.407 524.171 314.222 505.587 316.58 498.301C317.917 494.133 312.676 501.603 313.383 503.176C317.917 513.267 309.374 512.271 309.374 506.924C309.374 506.068 309.042 505.692 308.379 505.797C304.579 506.374 294.779 493.268 292.918 481.578C292.499 479.009 292.08 477.751 290.796 475.313C289.433 472.745 288.49 472.247 289.329 474.553C291.923 481.63 286.682 481.63 284.9 476.178C284.402 474.684 283.721 473.741 283.957 474.868C284.402 476.912 282.516 477.515 281.205 475.733C277.092 470.097 278.454 460.688 282.751 465.012C283.826 466.087 283.118 451.986 281.965 450.832C281.73 450.596 277.642 444.384 278.9 447.058C282.751 455.078 278.244 461.762 275.572 457.7C271.929 452.195 273.161 441.711 277.773 438.723C279.607 437.543 279.633 436.94 277.93 435.237C273.842 431.148 275.414 423.887 280.184 429.785C280.952 430.746 281.965 431.086 283.223 430.807C285.529 430.309 286.132 430.256 283.642 429.313C276.934 426.744 276.987 422.498 273.685 426.299C272.742 427.373 272.742 427.399 273.502 429.156C278.769 441.187 267.449 446.376 264.147 438.356C263.282 436.233 257.124 440.741 257.072 444.332C256.967 449.102 251.098 440.007 253.639 437.438C256.758 434.319 258.618 433.847 255.919 434.214C249.552 435.079 249.552 433.035 250.102 436.023C252.146 447.11 242.398 442.052 241.9 437.255C241.69 435.21 241.69 435.21 240.983 436.154C239.463 438.225 236.293 435.735 235.454 431.803C234.432 426.901 228.956 417.23 225.968 416.129C226.335 419.222 226.021 425.958 219.811 419.667C219.601 419.431 218.789 418.933 218.029 418.54C210.377 414.556 193.869 396.47 207.416 411.909C214.701 420.218 217.845 420.48 218.212 423.206C218.212 423.389 218.264 423.546 218.291 423.678C218.396 424.359 218.71 424.516 220.518 425.486C223.741 427.242 225.995 429.654 227.986 433.402C232.467 441.92 259.823 465.091 250.469 462.418C247.088 461.448 250.6 465.353 250.495 464.96C250.076 463.335 251.622 464.305 252.827 465.275C254.478 466.585 255.316 465.773 257.963 470.124C260.583 474.422 273.895 487.344 276.253 487.895C277.013 488.078 279.974 491.328 280.524 492.587C281.782 495.444 291.949 508.182 288.831 503.071C285.005 496.754 290.744 497.567 296.639 504.303C298.945 506.95 344.304 556.463 365.607 570.172C385.338 581.076 379.338 577.485 387.513 581.757C394.221 585.269 391.234 586.685 384.841 585.741C377.451 584.666 374.097 581.993 378.526 585.007C384.526 589.07 401.296 590.826 414.477 586.501C429.387 581.6 441.283 575.912 453.939 569.7C482.239 553.03 468.299 560.788 491.935 534.734C496.808 529.361 502.416 526.347 498.145 528.103C490.336 531.327 495.839 523.961 511.535 510.174C513.867 508.13 516.514 504.775 518.636 501.865C523.772 494.841 525.135 490.306 535.747 484.881C538.236 483.596 542.245 479.9 549.792 471.88C556.762 464.462 563.837 460.032 565.724 461.92C566.196 462.391 567.217 461.133 567.925 459.22C569.471 454.921 577.594 444.594 581.315 443.048C583.804 441.999 588.338 437.805 589.988 434.975C591.089 433.087 616.323 409.786 617.79 407.164C618.157 406.483 618.157 406.509 617.528 407.06C617.293 407.269 610.296 411.725 603.902 413.01C600.732 413.639 600.732 413.639 599.92 414.975C597.692 418.724 572.72 424.071 564.178 423.756C561.191 423.651 560.771 423.415 562.055 424.726C576.153 439.116 536.402 444.044 548.115 429.732C552.36 427.845 539.049 426.246 532.157 427.819C530.532 428.186 528.803 429.295 526.969 431.148C513.133 445.144 504.539 431.751 504.539 431.751C503.543 432.747 506.399 440.374 508.574 442.55C509.098 443.074 509.622 443.074 511.849 442.471C539.992 435.184 521.492 464.2 501.473 452.824C499.114 451.488 499.298 451.488 499.141 452.824C498.852 455.157 495.682 457.149 493.114 456.572C489.707 455.812 489 455.891 487.27 457.097C486.196 457.857 486.196 457.778 487.244 457.909C501.604 459.587 483.759 470.071 485.095 462.942C485.777 459.298 485.41 460.609 480.981 465.51C476.37 470.622 474.457 473.531 478.204 470.989C487.611 464.672 492.511 473.295 473.723 476.991C464.657 478.773 462.036 471.146 469.714 470.543C472.334 470.333 459.992 465.065 457.818 474.422H457.791Z" fill="#06C569"/>
<path d="M491.28 257.708C495.027 257.63 497.516 257.682 497.411 259.491C497.175 263.947 511.954 272.832 514.863 269.949C515.02 269.792 515.465 270.421 515.858 271.364C518.295 277.288 529.589 281.744 536.481 279.464C541.381 277.865 548.508 280.879 549.373 284.942C549.53 285.65 549.556 285.466 548.796 285.02C544.787 282.714 531.843 284.758 538.734 293.146C540.044 294.745 540.359 295.531 539.075 295.243C534.437 294.142 538.394 302.844 543.687 305.387C548.115 307.51 547.696 310.603 551.155 317.575L491.28 257.682V257.708ZM571.174 337.626C574.476 339.487 580.634 342.108 584.826 349.841C586.32 352.54 586.556 352.986 587.578 353.196C581.289 339.068 589.15 337.128 581.027 336.683C574.266 336.342 571.541 334.114 566.274 332.777L571.148 337.652L571.174 337.626ZM409.629 176.034L456.953 223.372C454.647 220.672 452.42 218.261 450.716 216.767C438.558 206.203 453.625 201.983 449.092 202.062C446 202.848 443.799 201.879 441.624 200.175C439.187 198.262 441.624 196.872 438.427 197.37C432.348 198.314 431.771 193.57 433.003 189.69C433.815 187.253 431.85 186.1 428.208 186.965C423.098 188.694 421.919 180.071 431.457 174.619C432.426 174.069 432.4 174.042 430.199 173.282C418.905 169.193 426.504 153.807 437.877 161.409C438.846 162.011 439.265 162.483 439.37 162.3C439.527 161.959 437.091 155.197 436.986 154.856C435.283 149.823 428.522 156.193 423.15 157.11C420.582 157.529 420.556 157.739 419.22 162.221C414.975 176.454 407.376 175.091 409.315 166.808C410.127 163.689 410.153 163.82 406.825 165.917C402.004 168.957 400.694 170.294 396.292 170.032C393.907 169.665 392.413 167.149 393.016 162.641C393.802 157.189 394.667 154.384 389.898 154.201C386.753 153.912 384.133 155.013 382.377 155.852C380.622 156.691 379.731 157.451 379.993 157.398C384.238 156.376 385.574 162.011 382.98 166.494C380.963 169.298 372.158 181.408 369.381 179.075C368.647 178.498 368.385 178 367.913 176.113C367.546 174.593 365.895 176.48 365.45 178.865C362.122 196.479 344.802 186.283 354.182 172.915C356.253 169.98 355.519 171.369 356.96 169.377C358.323 167.463 354.34 168.957 352.401 170.294C344.54 175.615 347.71 177.214 344.828 182.115C342.967 185.313 339.875 184.789 337.936 190.031C332.617 204.107 320.118 202.77 324.389 186.493C325.28 183.033 323.813 182.64 320.852 185.602C313.095 193.36 305.077 191.158 303.688 181.539C302.771 175.222 302.221 201.354 294.779 210.083C292.132 213.202 291.818 214.408 292.971 217.422C297.714 229.82 284.009 246.883 279.004 232.572C278.218 230.292 277.563 232.205 277.642 235.743C278.009 252.335 271.51 268.193 259.745 272.911C255.421 274.641 255.736 274.929 252.984 277.917C239.594 292.412 232.414 269.87 233.201 274.536C233.803 282.924 234.72 285.125 237.708 285.309C268.235 287.248 240.642 342.135 226.178 339.618C224.37 339.278 224.082 340.247 223.872 347.403C223.243 369.997 212.421 369.709 211.085 367.14C210.613 366.223 210.377 370.967 207.6 378.254L409.629 176.034ZM218.238 423.625C218.369 424.307 218.658 424.464 220.466 425.434C227.043 429.025 226.519 432.878 232.048 438.959C231.235 434.581 229.427 432.93 229.165 427.924C228.877 422.577 227.567 427.74 218.238 423.599V423.625ZM250.416 462.391C247.036 461.422 250.547 465.327 250.443 464.934C250.023 463.309 251.569 464.279 252.775 465.248C254.425 466.559 255.264 465.746 257.911 470.097C260.531 474.396 273.842 487.318 276.201 487.869C276.961 488.052 279.922 491.302 280.472 492.56C280.681 493.032 281.153 493.792 281.756 494.684C280.681 488.786 282.411 483.229 280.21 483.334C277.249 483.491 271.379 473.688 273.292 471.775C273.397 471.67 272.978 471.382 272.349 471.12C268.444 469.495 265.483 462.024 266.977 457.464C268.051 454.214 266.034 449.522 263.335 448.919C262.863 448.814 262.994 448.788 263.282 449.312C264.802 451.959 263.439 460.53 257.911 455.97C256.862 455.105 256.338 454.895 256.522 455.76C257.229 458.853 251.491 456.206 249.814 452.719C248.294 449.522 246.722 450.57 238.756 446.219C243.918 451.671 251.7 459.534 252.486 462.156C252.748 463.02 252.617 463.047 250.364 462.391H250.416ZM296.639 504.251C298.709 506.583 302.954 511.092 308.798 517.173C357.17 567.42 353.947 564.169 387.513 581.731C390.212 583.146 391.365 584.116 391.339 584.798C391.339 586.344 386.387 585.951 384.814 585.741C377.425 584.666 374.071 581.993 378.499 585.007C381.827 587.235 388.719 592.242 395.951 592.373C403.183 592.53 403.393 601.18 407.271 599.921C427.395 583.88 454.254 569.595 470.71 559.347C477.523 555.1 471.653 557.04 491.908 534.734C496.782 529.361 502.39 526.347 498.119 528.103C490.31 531.327 495.813 523.961 511.509 510.174C513.841 508.13 516.487 504.775 518.61 501.865C520.706 498.982 522.278 496.545 522.357 496.414C525.37 491.564 529.458 488.105 535.721 484.881C538.21 483.596 542.219 479.9 549.766 471.88C556.736 464.462 563.811 460.032 565.698 461.92C566.169 462.391 567.191 461.133 567.899 459.22C569.445 454.921 577.568 444.594 581.289 443.048C583.778 441.999 588.311 437.805 589.962 434.975C590.355 434.293 597.666 427.268 604.689 420.427C598.295 423.415 593.762 423.546 594.469 423.94C596.146 424.805 596.356 431.986 581.394 432.406C576.651 432.537 576.022 432.747 576.232 433.926C577.961 443.493 541.564 461.789 540.28 441.554C540.149 439.561 538.708 438.985 533.153 438.565C530.061 438.041 544.971 442.812 535.38 451.671C533.389 453.506 533.205 453.27 532.079 456.153C525.947 471.46 499.403 466.821 505.403 468.892C514.863 472.194 503.569 481.316 495.367 478.144C493.376 477.384 492.59 477.568 490.52 479.324C484.755 484.252 467.46 484.618 471.627 485.221C477.994 486.139 479.462 491.46 474.326 496.597C472.361 498.563 472.623 499.533 474.929 498.93C485.724 496.099 486.589 504.408 477.261 507.894C475.531 508.549 475.269 508.733 474.038 510.384C471.758 513.398 470.448 513.451 466.203 515.574C460.438 518.457 453.337 527.343 453.442 527.683C453.677 527.998 453.494 528.155 458.892 524.276C479.855 509.205 476.003 530.278 455.669 537.513C453.206 538.378 450.716 540.239 451.555 540.684C456.062 543.148 446.864 547.997 442.174 550.12C425.98 557.486 420.792 550.304 428.208 546.791C428.758 546.503 423.465 548.05 416.39 550.304C411.201 551.955 411.988 553.239 414.582 556.542C416.573 559.058 415.263 561.286 411.437 562.177C407.638 563.042 401.296 562.544 394.798 559.006C390.265 556.542 390.422 556.358 390.998 558.691C392.649 565.192 378.683 561.889 379.312 550.173C379.495 546.791 379.469 546.791 377.215 544.511C371.975 539.216 370.586 531.17 366.813 531.379C365.948 531.484 364.087 531.327 362.515 531.143C358.27 530.698 360.681 530.645 366.446 535.914C372.446 541.392 374.307 548.181 369.695 548.154C363.878 548.102 357.379 539.347 358.794 542.571C367.232 559.111 357.065 554.864 352.663 548.469C341.788 532.716 345.719 545.009 335.709 537.119C333.744 535.573 328.11 529.885 327.743 527.762C327.306 526.556 326.599 525.744 325.621 525.324C322.633 524.04 318.284 518.116 318.284 515.338C318.284 512.324 315.558 522.31 308.562 514.263C306.23 511.564 300.518 506.977 296.666 504.251H296.639Z" fill="#38D187"/>
<path d="M517.824 284.234C521.545 284.182 521.623 284.287 521.859 285.807C522.855 291.442 528.017 292.805 528.017 292.805C527.807 293.015 527.336 293.146 526.812 293.225L517.85 284.26L517.824 284.234ZM275.441 298.572C285.844 285.859 291.87 284.208 302.168 271.26C316.973 252.492 334.766 246.674 334.818 240.252C334.818 234.669 340.164 227.461 345.614 225.6C347.579 224.918 347.841 224.709 349.544 222.087C359.685 206.439 369.407 208.143 349.492 210.712C344.671 211.315 343.02 208.746 342.129 212.18C338.513 226.072 325.752 234.171 320.616 225.862C317.995 221.563 316.895 221.747 317.34 226.412C318.598 239.072 307.776 259.098 302.509 253.855C301.173 252.519 301.671 248.692 300.806 249.557C300.072 250.291 284.743 275.427 284.664 277.419C284.481 282.059 281.389 287.615 277.196 290.839C273.58 293.67 273.554 293.723 273.292 298.519C273.17 300.459 273.886 300.476 275.441 298.572ZM375.538 199.703C378.159 195.483 380.779 200.621 382.404 203.242L389.977 195.667C388.797 193.858 388.169 190.922 388.745 187.672C389.243 185.13 388.745 184.212 387.749 185.916C386.885 187.253 386.046 188.799 385.155 189.9C383.033 192.469 379.757 194.802 377.504 192.233C376.98 191.656 376.849 191.683 376.377 192.469C375.276 194.88 374.7 201.014 375.512 199.677L375.538 199.703ZM384.762 571.508C390.553 573.972 386.334 574.182 391.627 578.717C397.261 583.539 379.023 572.871 374.91 571.561C372.053 570.879 369.302 568.389 370.271 568.049C373.652 566.817 369.616 563.802 375.355 566.79C377.189 567.734 379.993 569.49 384.762 571.508ZM437.405 575.126C455.957 564.694 461.958 562.308 460.621 559.687C458.42 555.415 463.923 550.304 467.775 547.394C470.893 545.035 460.202 550.33 457.582 551.903C454.097 553.999 457.32 553.344 453.206 557.407C448.568 562.02 440.261 565.794 433.003 566.214C430.147 566.371 429.675 567.184 432.348 567.891C437.746 569.045 437.641 572.898 430.985 575.807C426.95 577.563 434.313 576.856 437.405 575.126ZM498.538 515.626C500.294 514.499 500.425 514.316 500.87 513.031C502.102 509.414 506.897 505.902 510.565 505.876C514.81 505.876 518.689 494.081 531.083 484.252C539.651 477.463 540.752 473.479 549.163 466.559C550.421 465.528 550.404 465.056 549.111 465.144C545.94 465.327 545.888 465.327 544.027 467.738C541.879 470.517 538.21 472.561 535.144 472.692C533.808 472.745 517.169 482.889 516.697 483.387C516.121 483.963 518.636 483.622 519.527 484.514C523.012 488 509.753 495.155 501.368 494.343C498.302 494.028 498.171 494.762 501.001 496.518C506.504 499.9 501.132 508.366 491.961 510.751C489.681 511.354 491.384 512.455 490.991 515.626C489.314 528.837 488.161 522.389 498.512 515.679L498.538 515.626ZM258.199 463.073C257.413 463.859 258.094 468.341 259.116 469.18C259.43 469.442 260.452 469.599 261.579 470.648C263.623 472.561 263.78 473.479 263.833 470.386C263.885 467.319 263.885 467.319 262.811 467.136C259.064 466.507 258.173 463.047 258.173 463.047L258.199 463.073Z" fill="#57E6A1"/>
<rect x="565" y="182" width="19" height="19" fill="#38D187"/>
<rect x="565" y="124" width="7" height="7" fill="#38D187"/>
<rect x="594" y="492" width="7" height="7" fill="#38D187"/>
<rect x="530" y="78" width="10" height="10" fill="#38D187"/>
</g>
<ellipse cx="237" cy="236.5" rx="237" ry="236.5" fill="url(#paint0_radial_8_371)" fill-opacity="0.1"/>
<defs>
<radialGradient id="paint0_radial_8_371" cx="0" cy="0" r="1" gradientUnits="userSpaceOnUse" gradientTransform="translate(237 236.5) rotate(90) scale(236.5 237)">
<stop stop-color="#38D187"/>
<stop offset="1" stop-color="#38D187" stop-opacity="0"/>
</radialGradient>
<clipPath id="clip0_8_371">
<rect width="424" height="534" fill="white" transform="translate(194 66)"/>
</clipPath>
</defs>
</svg>
