<svg width="474" height="473" viewBox="0 0 474 473" fill="none" xmlns="http://www.w3.org/2000/svg">
<ellipse cx="237" cy="236.5" rx="237" ry="236.5" fill="url(#paint0_radial_40_620)" fill-opacity="0.1"/>
<path d="M240.176 445.116L220.9 436.673C219.135 435.914 217.08 436.696 216.321 438.46C215.562 440.225 216.343 442.279 218.108 443.039L231.509 448.913L240.176 445.116Z" fill="#06C569"/>
<path d="M240.176 452.71L253.488 458.54C255.252 459.3 257.307 458.518 258.067 456.753C258.826 454.989 258.044 452.934 256.28 452.174L248.842 448.913L240.176 452.71Z" fill="#06C569"/>
<path d="M246.832 416.549C246.586 416.303 246.184 416.549 246.251 416.884C246.385 417.442 246.474 417.978 246.519 418.492C246.653 419.988 246.541 421.864 245.737 423.182C245.045 424.321 243.883 424.612 242.789 423.875C240.6 421.574 243.839 418.157 244.308 414.605C244.352 414.203 244.375 413.824 244.352 413.422C244.174 410.808 243.28 408.932 241.382 407.391C239.863 406.207 237.719 405.18 235.53 405.001C235.195 404.979 235.038 405.381 235.284 405.604C237.763 407.905 237.808 412.305 235.552 414.762C234.748 415.633 233.43 416.571 232.224 416.66C231.398 416.727 230.571 416.392 229.968 415.834C229.521 415.432 228.829 415.432 228.36 415.834C225.434 418.268 223.535 421.909 223.401 425.997C223.401 426.153 223.401 426.309 223.401 426.466C223.401 427.538 223.513 428.588 223.759 429.57C223.803 429.771 223.848 429.972 223.915 430.173C224.92 433.747 227.511 436.651 230.906 438.192L237.25 441.073L243.571 438.214C247.055 436.628 249.713 433.613 250.651 429.905C250.83 429.168 250.964 428.431 251.031 427.649C251.053 427.247 251.076 426.868 251.076 426.466C251.009 422.579 249.423 419.072 246.832 416.549Z" fill="#06C569"/>
<path opacity="0.2" d="M230.884 438.214L237.183 441.073L243.481 438.214L237.183 425.796L230.884 438.214Z" fill="white"/>
<path d="M227.444 457.959C228.092 458.384 228.963 458.183 229.365 457.535L232.693 452.375L230.348 450.856L227.02 456.038C226.618 456.686 226.796 457.535 227.444 457.959Z" fill="#06C569"/>
<path d="M254.225 439.577L257.196 437.276C256.213 436.383 254.761 436.115 253.465 436.673L218.085 452.174C216.544 452.844 215.74 454.497 216.075 456.083L219.47 455.502L217.572 458.25C218.532 458.875 219.761 459.031 220.877 458.54L256.257 443.039C258 442.279 258.804 440.269 258.067 438.527L254.225 439.577Z" fill="#06C569"/>
<circle cx="236.5" cy="402.5" r="67.5" fill="#38D187" fill-opacity="0.1"/>
<circle cx="236.5" cy="402.5" r="48.75" fill="#38D187" fill-opacity="0.1"/>
<circle cx="236.5" cy="402.5" r="28.125" fill="#38D187" fill-opacity="0.1"/>
<rect x="199" y="335" width="6" height="6" fill="#38D187"/>
<rect x="255" y="299" width="10" height="10" fill="#38D187"/>
<rect x="300" y="285" width="4" height="4" fill="#38D187"/>
<rect x="121" y="344" width="4" height="4" fill="#38D187"/>
<rect x="241" y="270" width="4" height="4" fill="#38D187"/>
<rect x="212" y="289" width="4" height="4" fill="#38D187"/>
<rect x="243" y="350" width="12" height="12" fill="#38D187"/>
<rect x="167" y="318" width="4" height="4" fill="#38D187"/>
<rect x="354" y="311" width="4" height="4" fill="#38D187"/>
<rect x="257" y="397" width="13" height="13" fill="#38D187"/>
<rect x="202" y="384" width="14" height="14" fill="#38D187"/>
<rect x="315" y="391" width="4" height="4" fill="#38D187"/>
<rect x="209" y="237" width="4" height="4" fill="#38D187"/>
<rect x="171" y="369" width="4" height="4" fill="#38D187"/>
<rect x="408" y="285" width="3" height="3" fill="#38D187"/>
<rect x="315" y="239" width="4" height="4" fill="#38D187"/>
<rect x="143" y="268" width="4" height="4" fill="#38D187"/>
<defs>
<radialGradient id="paint0_radial_40_620" cx="0" cy="0" r="1" gradientUnits="userSpaceOnUse" gradientTransform="translate(237 236.5) rotate(90) scale(236.5 237)">
<stop stop-color="#38D187"/>
<stop offset="1" stop-color="#38D187" stop-opacity="0"/>
</radialGradient>
</defs>
</svg>
