<svg width="19" height="19" viewBox="0 0 19 19" fill="none" xmlns="http://www.w3.org/2000/svg">
<path fill-rule="evenodd" clip-rule="evenodd" d="M9.54411 0.720581C4.66911 0.720581 0.720581 4.76898 0.720581 9.76729C0.720581 13.7705 3.24632 17.1517 6.75367 18.3504C7.19485 18.4295 7.36029 18.1581 7.36029 17.9206C7.36029 17.7058 7.34926 16.9934 7.34926 16.2357C5.13235 16.6541 4.55882 15.6816 4.38235 15.1727C4.28308 14.9126 3.85293 14.1097 3.47793 13.8949C3.16911 13.7252 2.72793 13.3068 3.4669 13.2955C4.16176 13.2842 4.65808 13.9514 4.82352 14.2228C5.61764 15.5911 6.88602 15.2066 7.39338 14.9691C7.47058 14.3811 7.7022 13.9853 7.95587 13.7592C5.99264 13.533 3.94117 12.7527 3.94117 9.29234C3.94117 8.30851 4.28308 7.49431 4.84558 6.86104C4.75735 6.63487 4.44852 5.70758 4.93382 4.46366C4.93382 4.46366 5.67279 4.22618 7.36029 5.39095C8.06617 5.18739 8.81617 5.08562 9.56617 5.08562C10.3162 5.08562 11.0662 5.18739 11.7721 5.39095C13.4596 4.21487 14.1985 4.46366 14.1985 4.46366C14.6838 5.70758 14.375 6.63487 14.2868 6.86104C14.8493 7.49431 15.1912 8.2972 15.1912 9.29234C15.1912 12.764 13.1287 13.533 11.1654 13.7592C11.4853 14.0419 11.761 14.5847 11.761 15.4328C11.761 16.6428 11.75 17.6153 11.75 17.9206C11.75 18.1581 11.9154 18.4408 12.3566 18.3504C15.8419 17.1517 18.3676 13.7592 18.3676 9.76729C18.3676 4.76898 14.4191 0.720581 9.54411 0.720581Z" fill="#171717"/>
</svg>
