<svg width="637" height="693" viewBox="0 0 637 693" fill="none" xmlns="http://www.w3.org/2000/svg">
<g clip-path="url(#clip0_1_5)">
<path d="M416.552 588.649C416.548 588.633 416.542 588.615 416.536 588.599C416.53 588.565 416.516 588.539 416.498 588.505C416.494 588.499 416.494 588.491 416.488 588.481C416.482 588.475 416.474 588.471 416.468 588.465C416.448 588.439 416.428 588.411 416.4 588.391C416.386 588.377 416.372 588.367 416.361 588.357C416.355 588.353 416.351 588.351 416.345 588.343C416.321 588.329 416.287 588.319 416.261 588.309C416.247 588.305 416.241 588.3 416.227 588.296C416.179 588.286 416.129 588.282 416.079 588.286C416.073 588.286 416.059 588.29 416.051 588.292C416.011 588.298 415.971 588.307 415.937 588.325C415.931 588.329 415.923 588.329 415.917 588.331L368.142 613.045L429.232 499.199C429.256 499.155 429.27 499.111 429.276 499.063C429.276 499.063 429.28 499.063 429.28 499.059L458.964 319.557V319.547C458.97 319.523 458.964 319.499 458.964 319.479C458.964 319.449 458.964 319.419 458.958 319.387C458.955 319.367 458.945 319.349 458.939 319.329C458.925 319.299 458.919 319.271 458.899 319.245C458.889 319.229 458.873 319.215 458.859 319.197C458.839 319.173 458.819 319.149 458.791 319.129C458.785 319.123 458.781 319.119 458.777 319.115C458.761 319.105 458.743 319.102 458.729 319.096C458.709 319.086 458.695 319.072 458.675 319.066C458.665 319.062 458.655 319.062 458.649 319.06C458.621 319.054 458.595 319.054 458.571 319.05C458.543 319.046 458.517 319.046 458.491 319.046C458.467 319.05 458.443 319.056 458.421 319.062C458.393 319.068 458.367 319.076 458.343 319.09C458.32 319.1 458.304 319.113 458.284 319.127C458.26 319.143 458.236 319.161 458.216 319.185C458.206 319.195 458.196 319.199 458.186 319.209L379.292 418.497L406.996 349.888C407.005 349.86 407.009 349.83 407.015 349.804C407.015 349.788 407.021 349.774 407.021 349.76C407.027 349.712 407.021 349.666 407.012 349.618V349.614C407.008 349.604 407.005 349.598 407.002 349.59C406.988 349.552 406.976 349.52 406.958 349.488C406.948 349.472 406.934 349.458 406.92 349.445C406.906 349.429 406.892 349.407 406.88 349.391C406.874 349.387 406.87 349.387 406.866 349.385C406.85 349.371 406.832 349.361 406.816 349.351C406.792 349.337 406.772 349.325 406.746 349.313C406.73 349.307 406.708 349.299 406.688 349.297C406.664 349.291 406.638 349.283 406.61 349.283C406.6 349.283 406.59 349.279 406.582 349.279H353.537L416.476 249.795L512.928 145.943C512.934 145.929 512.942 145.917 512.948 145.904C512.972 145.874 512.988 145.846 513.002 145.816C513.012 145.796 513.016 145.776 513.022 145.756C513.028 145.726 513.036 145.696 513.038 145.664C513.038 145.64 513.034 145.62 513.034 145.596C513.03 145.566 513.024 145.538 513.014 145.508C513.008 145.484 513 145.464 512.986 145.444C512.982 145.43 512.98 145.42 512.972 145.406C512.962 145.39 512.946 145.38 512.932 145.362C512.926 145.352 512.918 145.339 512.908 145.329C512.904 145.323 512.898 145.319 512.892 145.315C512.866 145.291 512.834 145.275 512.804 145.257C512.788 145.247 512.771 145.237 512.755 145.229C512.717 145.215 512.683 145.209 512.651 145.205C512.631 145.205 512.617 145.199 512.601 145.199C512.551 145.199 512.497 145.205 512.445 145.225H512.441L374.619 197.167C374.605 197.171 374.599 197.183 374.585 197.187C374.569 197.197 374.551 197.197 374.535 197.206L211.584 302.18L245.589 178.614C245.595 178.59 245.593 178.566 245.595 178.544C245.595 178.528 245.605 178.514 245.605 178.496V145.638C245.605 145.462 245.504 145.307 245.346 145.237C245.188 145.163 245.002 145.189 244.875 145.305L129.052 245.467L74.6984 255.898L123.794 213.812C123.794 213.812 123.798 213.806 123.802 213.798C123.834 213.772 123.856 213.741 123.88 213.705C123.884 213.699 123.892 213.691 123.896 213.685C123.92 213.641 123.934 213.593 123.944 213.543C123.944 213.529 123.944 213.517 123.944 213.503C123.944 213.473 123.95 213.443 123.944 213.413C123.944 213.407 123.94 213.403 123.94 213.397C123.94 213.381 123.93 213.363 123.924 213.347C123.914 213.317 123.902 213.287 123.884 213.255C123.88 213.249 123.88 213.241 123.876 213.235C123.87 213.225 123.858 213.221 123.85 213.211C123.832 213.186 123.81 213.164 123.784 213.142C123.768 213.132 123.754 213.118 123.738 213.108C123.71 213.094 123.686 213.082 123.656 213.07C123.638 213.064 123.618 213.056 123.598 213.05C123.59 213.05 123.582 213.046 123.574 213.044L71.3618 204.565C71.214 204.539 71.0662 204.593 70.9664 204.703L42.6656 235.527L38.8118 191.181C38.8118 191.165 38.8018 191.147 38.7978 191.132C38.7918 191.102 38.7878 191.074 38.7758 191.052C38.7678 191.028 38.7518 191.012 38.7399 190.992C38.7259 190.968 38.7139 190.948 38.6959 190.928C38.68 190.908 38.656 190.894 38.6361 190.878C38.6201 190.868 38.6101 190.85 38.5921 190.84C38.5861 190.84 38.5821 190.836 38.5781 190.836C38.5562 190.822 38.5322 190.82 38.5083 190.81C38.4823 190.804 38.4583 190.794 38.4324 190.79C38.4264 190.786 38.4244 190.786 38.4184 190.784C38.4024 190.784 38.3844 190.788 38.3685 190.788C38.3405 190.788 38.3086 190.788 38.2826 190.794C38.2607 190.798 38.2407 190.808 38.2207 190.814C38.1947 190.824 38.1708 190.83 38.1468 190.848C38.1249 190.858 38.1069 190.874 38.0869 190.892C38.071 190.906 38.055 190.912 38.041 190.926L-24.553 259.829C-24.6568 259.947 -24.6948 260.108 -24.6449 260.26C-24.5969 260.412 -24.4731 260.524 -24.3174 260.558L11.779 268.254L-48.8022 291.442C-48.8122 291.446 -48.8182 291.452 -48.8262 291.456C-48.8542 291.47 -48.8801 291.486 -48.9041 291.506C-48.9241 291.52 -48.944 291.531 -48.962 291.553C-48.968 291.559 -48.978 291.563 -48.982 291.569L-133.523 391.159C-133.523 391.159 -133.527 391.169 -133.529 391.173C-133.545 391.193 -133.555 391.213 -133.567 391.233C-133.581 391.259 -133.595 391.283 -133.605 391.311C-133.605 391.317 -133.611 391.321 -133.613 391.327L-167.924 517.414C-167.944 517.492 -167.944 517.576 -167.924 517.654L-150.408 578.479L-192.383 597.788C-192.565 597.872 -192.67 598.068 -192.632 598.263L-182.738 653.962C-182.738 653.972 -182.73 653.982 -182.728 653.99C-182.724 654.014 -182.714 654.034 -182.706 654.054C-182.696 654.078 -182.684 654.104 -182.668 654.124C-182.656 654.144 -182.642 654.158 -182.628 654.174C-182.608 654.198 -182.589 654.218 -182.563 654.234C-182.555 654.24 -182.547 654.25 -182.537 654.258C-182.531 654.262 -182.527 654.262 -182.521 654.264C-182.469 654.29 -182.413 654.318 -182.351 654.324H-182.301C-182.223 654.324 -182.153 654.298 -182.085 654.264C-182.067 654.25 -182.049 654.238 -182.033 654.224C-182.011 654.204 -181.985 654.198 -181.968 654.176L-127.065 591.24L-113.411 598.431L-133.623 738.26C-133.633 738.324 -133.623 738.385 -133.607 738.441C-133.603 738.455 -133.597 738.461 -133.591 738.475C-133.569 738.535 -133.535 738.583 -133.493 738.627C-133.485 738.637 -133.483 738.647 -133.475 738.653C-133.469 738.659 -133.459 738.663 -133.449 738.669C-133.429 738.683 -133.407 738.695 -133.383 738.707C-133.357 738.721 -133.331 738.731 -133.301 738.741C-133.291 738.745 -133.283 738.751 -133.271 738.755C-133.243 738.759 -133.213 738.761 -133.185 738.765C-133.132 738.765 -133.08 738.751 -133.032 738.731H-133.022L-10.2938 689.698V748.519L-99.1079 798.484C-99.1079 798.484 -99.1199 798.494 -99.1259 798.498C-99.1518 798.514 -99.1758 798.538 -99.1977 798.558C-99.2117 798.572 -99.2257 798.584 -99.2377 798.598C-99.2576 798.626 -99.2716 798.652 -99.2856 798.686C-99.2936 798.7 -99.3036 798.714 -99.3096 798.734C-99.3215 798.768 -99.3255 798.804 -99.3255 798.842C-99.3255 798.856 -99.3315 798.868 -99.3315 798.882C-99.3315 798.886 -99.3315 798.886 -99.3315 798.886C-99.3275 798.94 -99.3156 798.99 -99.2976 799.037C-99.2976 799.037 -99.2976 799.037 -99.2976 799.041C-99.2976 799.045 -99.2936 799.045 -99.2916 799.047C-99.2596 799.117 -99.2077 799.179 -99.1418 799.227C-99.1378 799.233 -99.1338 799.237 -99.1279 799.241C-99.0839 799.267 -99.036 799.289 -98.9801 799.301L27.1524 825.763H27.1684C27.1684 825.763 27.1744 825.767 27.1764 825.767L162.562 846.162C162.584 846.166 162.608 846.168 162.628 846.168C162.662 846.168 162.696 846.162 162.732 846.154L282.199 817.258C282.223 817.254 282.239 817.242 282.259 817.232C282.279 817.227 282.297 817.219 282.313 817.208C282.361 817.183 282.407 817.145 282.441 817.101C282.441 817.097 282.447 817.095 282.455 817.091L323.403 761.122L402.678 662.357C402.722 662.299 402.756 662.233 402.768 662.162L416.552 588.801L416.548 588.797C416.552 588.777 416.552 588.763 416.552 588.749C416.552 588.715 416.552 588.679 416.548 588.645L416.552 588.649ZM281.881 816.384L276.27 816.178L212.666 813.835L321.664 762.013L281.879 816.386L281.881 816.384ZM-126.957 590.298V590.294L-138.221 584.361L-148.489 578.95L-91.5619 570.057L-113.046 597.627L-126.957 590.298ZM374.643 198.193L406.037 245.864L379.052 281.633L312.692 369.6L240.006 345.208L178.479 324.564L374.643 198.195V198.193ZM354.172 639.073L367.403 614.422L412.609 591.033L354.172 639.075V639.073ZM157.86 293.49L176.68 324.246H39.5546L129.143 246.557L157.86 293.49ZM369.771 442.055L380.101 450.406L384.723 454.143L263.343 582.504L359.204 468.165C359.234 468.131 359.258 468.091 359.278 468.048L369.769 442.055H369.771ZM-91.1406 569.094L-149.352 578.188L-132.98 462.697L-91.1406 569.096V569.094ZM-45.4037 428.024L-18.4248 337.953L80.8127 416.138L71.4476 417.018L-45.4037 428.024ZM232.786 442.44L252.956 592.779L138.341 535.03L163.564 510.301L232.786 442.44ZM253.02 593.803L232.876 729.14L138.562 536.128L153.844 543.828L253.02 593.803ZM27.5677 350.109L66.4776 398.09L79.1154 413.676L-16.6936 338.189L27.5677 350.109ZM232.171 441.799L137.726 534.395L95.3315 443.963L82.7096 417.046L212.105 438.473L232.171 441.799ZM153.742 661.004L129.99 596.139L232.185 730.136L181.386 728.318L187.632 700.945C187.632 700.935 187.632 700.925 187.632 700.915C187.632 700.909 187.638 700.905 187.638 700.895C187.638 700.885 187.634 700.875 187.634 700.865C187.634 700.826 187.634 700.786 187.622 700.748C187.618 700.734 187.616 700.718 187.61 700.704C187.594 700.656 187.57 700.606 187.536 700.566V700.562L153.738 661.006L153.742 661.004ZM180.455 728.431L105.895 762.943L186.502 701.93L180.455 728.433V728.431ZM107.089 763.364L180.929 729.188L230.102 730.945L107.091 763.364H107.089ZM230.745 726.79L129.038 593.434L137.812 536.605L147.506 556.441L230.745 726.79ZM136.939 534.797L98.0611 540.668L9.4966 554.044L81.9289 417.463L133.752 527.999L136.939 534.795V534.797ZM-45.3697 428.908L81.1781 416.992L8.73582 553.594L-9.2794 512.082L-45.3697 428.908ZM137.061 535.671L119.73 647.889L117.814 660.315L9.64037 554.916L137.063 535.671H137.061ZM128.746 595.315L152.876 661.205L103.221 762.302L118.554 661.297L128.746 595.315ZM153.457 662.028L186.562 700.774L103.57 763.592L137.105 695.315L153.457 662.026V662.028ZM232.482 731.23L210.555 813.587L103.668 765.177L232.482 731.23ZM79.97 413.325L28.3325 349.646L31.4016 342.361L38.3944 325.767L63.4724 378.586L79.968 413.325H79.97ZM27.5637 349.191L-16.7994 337.249L37.6317 325.302L27.5637 349.191ZM-132.265 460.16L-75.7532 350.804L-46.5858 428.268L-132.265 460.162V460.16ZM-45.9508 429.785L8.06091 554.261L-89.8946 568.907L-45.9508 429.785ZM291.129 654.284L350.867 641.677L235.33 728.386L291.129 654.286V654.284ZM233.798 728.954L253.766 594.808L290.338 653.859L233.798 728.954ZM232.341 440.929L82.8933 416.184L177.33 325.432L206.851 387.414L232.341 440.931V440.929ZM82.0886 415.73L80.9425 413.319L39.0674 325.131H176.368L82.0886 415.73ZM-46.0646 427.148L-75.0962 350.041L-19.2994 337.796L-46.0626 427.148H-46.0646ZM-132.608 461.234L-46.7096 429.254L-90.5715 568.126L-100.53 542.804L-132.606 461.236L-132.608 461.234ZM9.01337 555.541L41.0302 586.736L117.22 660.978L-9.32733 688.48L-0.106049 621.631L9.01337 555.541ZM209.158 813.926L96.3578 824.841L102.73 765.722L209.16 813.926H209.158ZM95.4912 824.653L-8.19513 772.745L101.859 765.544L95.4912 824.653ZM233.411 731.18L266.953 742.462L321.878 760.931L211.52 813.397L233.411 731.178V731.18ZM351.358 640.675L291.087 653.39L254.673 594.602L314.363 623.045L351.358 640.675ZM233.251 440.783L194.848 360.163L178.311 325.44L311.991 370.299L293.551 386.805L233.249 440.783H233.251ZM15.489 329.259L-74.1797 348.939L13.1767 268.877L37.7455 324.376L15.489 329.259ZM-72.0771 567.138L8.17671 555.142L-10.132 687.841L-89.7708 569.787L-72.0791 567.14L-72.0771 567.138ZM75.4852 670.952L117.586 661.802L102.023 764.314L26.6931 713.275L-8.74825 689.26L75.4872 670.954L75.4852 670.952ZM98.115 825.557L206.294 815.092L209.104 814.819L162.562 845.248L98.115 825.557ZM322.74 760.292L286.903 748.242L234.04 730.464L266.546 706.068L351.997 641.938L347.505 660.123L322.74 760.292ZM358.054 468.167L253.808 592.506L233.625 442.073L274.074 450.551L358.054 468.167ZM81.234 286.938L38.5302 323.969L22.4479 287.645L13.9595 268.467L127.712 246.631L81.234 286.94V286.938ZM-76.0887 349.53L-132.742 459.164V391.61L-50.4397 294.656L-76.0887 349.53ZM-112.506 598.371L-91.4701 571.378L-131.528 729.975L-112.504 598.371H-112.506ZM101.038 764.714L22.9831 769.82L-9.41118 771.939V689.881L101.038 764.714ZM27.4699 824.891L-8.48865 773.59L93.9896 824.891H27.4679H27.4699ZM366.686 613.889L361.215 624.085L352.539 640.257L254.242 593.416L282.886 563.129L385.376 454.748L428.297 499.065L366.686 613.889ZM428.547 498.055L385.915 454.033L452.826 330.898L457.661 322L428.547 498.053V498.055ZM455.714 323.735L387.642 449L385.234 453.432L370.118 441.202L378.118 421.384L455.716 323.735H455.714ZM358.597 467.379L311.806 457.566L234.391 441.33L325.26 393.251L405.712 350.68L358.597 467.379ZM236.091 439.429L313.149 370.452C313.169 370.432 313.189 370.413 313.203 370.389L328.459 350.169H404.795L236.093 439.429H236.091ZM329.126 349.285L406.73 246.417L415.454 249.749L352.485 349.285H329.126ZM415.997 249.009L407.391 245.723L503.016 155.312L415.995 249.009H415.997ZM406.656 245.203L387.245 215.729L375.444 197.805L510.694 146.836L406.654 245.203H406.656ZM178.505 323.496L243.313 183.537L210.466 302.907L184.727 319.487L178.505 323.494V323.496ZM244.717 178.409L177.41 323.759L129.816 245.976L244.717 146.614V178.411V178.409ZM16.4335 267.092L22.7574 263.955L120.525 215.455L72.9452 256.243L20.1476 266.379L16.4335 267.094V267.092ZM71.4516 205.481L122.071 213.701L15.2634 266.685L36.5773 243.469L71.4516 205.481ZM23.4303 256.485L14.3808 266.341L38.1169 193.427L41.8529 236.417L23.4303 256.485ZM37.3102 193.046L13.0349 267.621L-23.3809 259.853L37.3102 193.044V193.046ZM0.968231 278.87L-74.3494 347.895L-48.319 292.206L11.3237 269.38L0.968231 278.87ZM-133.625 394.752V460.946L-150.023 576.613L-167.035 517.528L-133.625 394.752ZM-150.735 579.605L-182.121 652.363L-191.698 598.449L-150.735 579.605ZM-180.773 651.469L-149.657 579.336L-140.4 584.217L-127.864 590.821L-180.773 651.471V651.469ZM-90.3419 570.516L-79.3315 586.84L-10.5234 688.839L-132.544 737.597L-90.3439 570.516H-90.3419ZM-10.2938 772.08L-95.2461 797.329L-10.2938 749.535V772.078V772.08ZM-10.0302 772.923L12.4059 804.937L26.2399 824.671L-97.0931 798.798L-10.0282 772.921L-10.0302 772.923ZM33.1368 825.775H95.7967L156.761 844.399L33.1368 825.775ZM210.973 814.655L278.882 817.161L165.012 844.699L210.973 814.653V814.655ZM401.92 661.894L323.964 759.024L353.118 641.088L415.46 589.839L401.918 661.894H401.92Z" fill="#343438"/>
<path d="M493.949 416.497C493.953 416.481 493.953 416.463 493.949 416.447C493.945 416.379 493.933 416.313 493.899 416.255V416.251H493.893C493.859 416.194 493.813 416.15 493.757 416.114C493.741 416.104 493.723 416.094 493.709 416.086C493.695 416.076 493.681 416.066 493.661 416.058C493.617 416.042 493.569 416.034 493.523 416.034C493.519 416.034 493.517 416.03 493.517 416.03H467.008C466.828 416.03 466.664 416.142 466.596 416.309L406.167 569.282C406.161 569.298 406.163 569.316 406.161 569.33C406.155 569.356 406.147 569.384 406.145 569.414C406.141 569.438 406.141 569.464 406.145 569.484C406.149 569.514 406.155 569.542 406.161 569.567C406.167 569.591 406.175 569.611 406.187 569.635C406.197 569.659 406.213 569.683 406.227 569.705C406.243 569.725 406.261 569.745 406.281 569.763C406.287 569.773 406.295 569.779 406.301 569.787C406.315 569.801 406.335 569.807 406.351 569.817C406.361 569.823 406.375 569.833 406.389 569.841C406.394 569.847 406.399 569.845 406.408 569.847C406.462 569.871 406.516 569.887 406.576 569.887C406.644 569.887 406.712 569.863 406.772 569.833C406.788 569.827 406.802 569.813 406.82 569.807C406.836 569.793 406.858 569.787 406.874 569.773L477.906 505.306C477.98 505.242 478.028 505.154 478.044 505.056L493.947 416.547C493.951 416.531 493.947 416.513 493.947 416.493L493.949 416.497ZM467.307 416.914H492.757L427.229 532.217L409.292 563.774L467.307 416.916V416.914ZM477.201 504.755L408.325 567.264L437.209 516.44L492.623 418.939L477.201 504.757V504.755Z" fill="#343438"/>
<path d="M157.125 197.424C157.115 197.448 157.109 197.472 157.103 197.498C157.097 197.524 157.093 197.552 157.093 197.582C157.093 197.606 157.097 197.63 157.099 197.652C157.103 197.682 157.111 197.71 157.121 197.735C157.129 197.759 157.139 197.779 157.153 197.799C157.169 197.827 157.185 197.849 157.205 197.869C157.213 197.883 157.219 197.893 157.229 197.903C157.239 197.913 157.25 197.917 157.262 197.923C157.272 197.933 157.278 197.943 157.288 197.949C157.298 197.955 157.308 197.953 157.316 197.959C157.382 197.997 157.454 198.019 157.526 198.019C157.588 198.019 157.646 198.005 157.704 197.981C157.72 197.975 157.736 197.961 157.754 197.947C157.782 197.931 157.814 197.917 157.838 197.893L233.415 124.754C233.499 124.67 233.549 124.554 233.549 124.436V106.415C233.549 106.391 233.539 106.365 233.535 106.341C233.531 106.325 233.531 106.303 233.525 106.287C233.515 106.243 233.495 106.199 233.467 106.161C233.467 106.161 233.461 106.157 233.461 106.155C233.435 106.122 233.403 106.088 233.367 106.064C233.353 106.05 233.337 106.048 233.319 106.038C233.299 106.024 233.279 106.012 233.255 106H233.249C233.225 105.994 233.209 105.994 233.191 105.986C233.165 105.982 233.137 105.976 233.111 105.976C233.091 105.976 233.071 105.98 233.051 105.982C233.025 105.986 233.001 105.988 232.974 105.996C232.97 106 232.964 106 232.954 106L195.166 119.781C195.058 119.821 194.97 119.899 194.922 120L157.135 197.382C157.131 197.392 157.131 197.402 157.127 197.416L157.125 197.424ZM232.662 124.255L163.011 191.662L232.662 107.649V124.253V124.255ZM195.635 120.557L231.724 107.397L159.547 194.455L195.635 120.557Z" fill="#343438"/>
<path d="M371.756 75.585C371.75 75.6129 371.75 75.6349 371.746 75.6629C371.742 75.6908 371.742 75.7128 371.746 75.7367C371.75 75.7627 371.756 75.7866 371.762 75.8146C371.772 75.8385 371.778 75.8625 371.788 75.8845C371.794 75.8904 371.794 75.8984 371.794 75.9044C371.8 75.9144 371.814 75.9184 371.822 75.9284C371.836 75.9523 371.848 75.9783 371.872 76.0022C371.888 76.0182 371.912 76.0262 371.932 76.0422C371.948 76.0521 371.961 76.0661 371.981 76.0721C372.041 76.1021 372.109 76.126 372.177 76.126C372.227 76.126 372.279 76.116 372.325 76.0961H372.331L443.837 49.0671C444.038 48.9892 444.154 48.7796 444.114 48.568L438.815 21.539C438.811 21.523 438.799 21.509 438.791 21.4891C438.777 21.4491 438.757 21.4112 438.733 21.3753C438.717 21.3513 438.695 21.3313 438.675 21.3114C438.661 21.2974 438.651 21.2774 438.635 21.2675L422.199 9.6086C422.008 9.47085 421.738 9.51078 421.592 9.70043L371.826 75.4193C371.82 75.4293 371.82 75.4353 371.812 75.4473C371.796 75.4712 371.786 75.4952 371.776 75.5211C371.766 75.5411 371.756 75.565 371.752 75.589L371.756 75.585ZM374.555 74.3133L438.092 22.4334L443.18 48.3743L374.555 74.3153V74.3133ZM422.041 10.5748L437.655 21.6508L374.765 73.0057L422.041 10.5748Z" fill="#343438"/>
<path d="M415.748 275.784L390.304 315.003C390.236 315.107 390.216 315.235 390.25 315.356L395.55 335.496C395.6 335.683 395.765 335.819 395.961 335.823C395.965 335.827 395.971 335.827 395.977 335.827C396.167 335.827 396.335 335.705 396.394 335.526L416.534 276.165C416.608 275.956 416.51 275.724 416.313 275.626C416.111 275.529 415.867 275.596 415.746 275.784H415.748ZM396.033 333.851L391.155 315.32L414.567 279.234L396.033 333.849V333.851Z" fill="#343438"/>
<path d="M516.211 441.268C516.211 441.248 516.205 441.234 516.197 441.214C516.183 441.174 516.167 441.134 516.143 441.092C516.137 441.086 516.137 441.072 516.129 441.066C516.123 441.06 516.115 441.06 516.109 441.052C516.075 441.013 516.036 440.979 515.988 440.951C515.982 440.951 515.978 440.945 515.968 440.937C515.92 440.917 515.87 440.903 515.812 440.897H504.646C504.422 440.897 504.234 441.058 504.206 441.282L493.074 527.186C493.074 527.202 493.08 527.22 493.08 527.234C493.076 527.268 493.08 527.294 493.084 527.326C493.088 527.35 493.094 527.37 493.104 527.394C493.114 527.424 493.124 527.448 493.142 527.472C493.156 527.492 493.168 527.512 493.182 527.532C493.202 527.552 493.222 527.572 493.242 527.586C493.262 527.606 493.282 527.619 493.306 527.629C493.316 527.635 493.33 527.645 493.34 527.653C493.354 527.657 493.37 527.657 493.384 527.659C493.398 527.665 493.412 527.673 493.432 527.679C493.458 527.685 493.486 527.685 493.512 527.685C493.579 527.685 493.643 527.665 493.701 527.637C493.715 527.631 493.727 527.624 493.741 527.618C493.799 527.58 493.849 527.538 493.883 527.48C493.887 527.476 493.889 527.476 493.889 527.476L520.391 484.52C520.444 484.44 520.464 484.344 520.458 484.246L516.215 441.294C516.215 441.28 516.211 441.274 516.209 441.268H516.211ZM505.035 441.781H515.209L494.863 520.287L505.035 441.781ZM494.678 524.519L507.17 476.319L515.584 443.851L519.564 484.186L494.678 524.519Z" fill="#343438"/>
<path d="M272.78 49.6081C272.82 49.6221 272.864 49.6281 272.908 49.6281C273.054 49.6281 273.191 49.5542 273.275 49.4284L296.354 14.911C296.466 14.7453 296.452 14.5237 296.316 14.374C296.183 14.2222 295.965 14.1823 295.783 14.2722L272.708 25.9989C272.56 26.0728 272.464 26.2245 272.464 26.3942V49.1849C272.464 49.3765 272.592 49.5502 272.778 49.6061L272.78 49.6081ZM273.349 26.6657L294.677 15.8253L273.349 47.7295V26.6657Z" fill="#343438"/>
<path d="M633.817 175.438C633.823 175.412 633.831 175.38 633.831 175.35C633.831 175.334 633.835 175.312 633.831 175.296C633.831 175.282 633.835 175.272 633.831 175.258C633.831 175.252 633.821 175.244 633.821 175.238C633.807 175.168 633.781 175.097 633.731 175.039C633.731 175.035 633.727 175.035 633.725 175.033C633.719 175.027 633.711 175.023 633.705 175.017C633.651 174.963 633.587 174.927 633.516 174.905C633.51 174.905 633.506 174.899 633.5 174.895L615.538 170.655C615.397 170.621 615.249 170.661 615.143 170.756L568.072 213.156C568.062 213.166 568.056 213.176 568.048 213.186C568.028 213.205 568.014 213.229 568 213.249C567.984 213.273 567.97 213.297 567.96 213.319C567.954 213.343 567.946 213.367 567.94 213.393C567.934 213.421 567.93 213.443 567.93 213.475C567.93 213.499 567.934 213.523 567.936 213.549C567.94 213.575 567.946 213.603 567.952 213.629C567.958 213.643 567.958 213.653 567.966 213.667C567.966 213.677 567.98 213.681 567.982 213.687C567.992 213.707 567.996 213.727 568.01 213.745C568.034 213.774 568.068 213.792 568.094 213.814C568.114 213.828 568.128 213.848 568.148 213.862C568.216 213.9 568.29 213.922 568.364 213.922C568.412 213.922 568.461 213.916 568.505 213.898L615.161 197.999C615.235 197.973 615.303 197.925 615.357 197.863L633.735 175.604C633.735 175.604 633.741 175.584 633.749 175.578C633.769 175.548 633.789 175.52 633.803 175.488C633.809 175.472 633.809 175.458 633.817 175.438ZM615.56 171.569L632.222 175.502L584.484 203.517L571.89 210.904L615.56 171.571V171.569ZM614.757 197.204L572.345 211.66L615.273 186.468L631.463 176.971L614.757 197.204Z" fill="#343438"/>
<path d="M575.854 291.711C575.854 291.711 575.848 291.707 575.848 291.705C575.828 291.645 575.788 291.591 575.746 291.548C575.736 291.538 575.73 291.532 575.718 291.524C575.678 291.486 575.634 291.46 575.582 291.44C575.568 291.436 575.562 291.436 575.548 291.434C575.542 291.434 575.542 291.428 575.534 291.428L547.683 284.858C547.565 284.832 547.439 284.854 547.335 284.922C547.232 284.991 547.164 285.101 547.146 285.225L539.654 335.32C539.65 335.336 539.654 335.35 539.654 335.368V335.432C539.66 335.462 539.668 335.49 539.674 335.516C539.68 335.536 539.684 335.556 539.694 335.576C539.708 335.602 539.727 335.63 539.747 335.658C539.753 335.668 539.761 335.681 539.771 335.691C539.775 335.695 539.777 335.695 539.781 335.697C539.819 335.735 539.861 335.767 539.909 335.787C539.913 335.791 539.915 335.791 539.915 335.791C539.969 335.815 540.029 335.829 540.091 335.829C540.145 335.829 540.203 335.813 540.257 335.789C540.273 335.785 540.287 335.775 540.301 335.769C540.321 335.759 540.338 335.753 540.354 335.739L575.696 309.287C575.808 309.203 575.872 309.072 575.872 308.934V291.857C575.872 291.809 575.866 291.763 575.852 291.719V291.715L575.854 291.711ZM547.95 285.826L574.646 292.122L566.82 301.765L540.77 333.851L547.952 285.826H547.95ZM542.685 332.891L574.993 293.103V308.708L542.685 332.891Z" fill="#343438"/>
<path d="M520.417 236.377L507.162 209.051C507.124 208.971 507.06 208.905 506.986 208.861L481.009 194.022H481.003C480.956 193.996 480.91 193.974 480.858 193.968C480.834 193.964 480.808 193.968 480.784 193.968H480.754C480.676 193.974 480.606 194.002 480.544 194.042C480.54 194.046 480.53 194.046 480.528 194.048C480.524 194.052 480.524 194.054 480.518 194.058C480.478 194.092 480.438 194.132 480.41 194.182L415.74 305.48C415.706 305.534 415.686 305.594 415.68 305.656L413.619 324.641C413.619 324.641 413.623 324.655 413.623 324.661C413.619 324.675 413.623 324.685 413.623 324.699C413.623 324.763 413.637 324.823 413.667 324.877C413.671 324.883 413.667 324.893 413.671 324.901C413.675 324.905 413.677 324.905 413.677 324.907C413.711 324.965 413.761 325.015 413.819 325.053C413.833 325.059 413.845 325.067 413.859 325.073C413.875 325.083 413.893 325.097 413.913 325.103C413.961 325.119 414.007 325.129 414.06 325.129H427.311C427.423 325.129 427.531 325.085 427.615 325.007L520.327 236.887C520.327 236.887 520.333 236.871 520.341 236.863C520.375 236.829 520.401 236.789 520.423 236.745C520.429 236.729 520.436 236.715 520.438 236.697C520.454 236.649 520.462 236.599 520.458 236.549C520.458 236.543 520.462 236.535 520.462 236.525V236.521C520.456 236.471 520.442 236.419 520.419 236.373L520.417 236.377ZM506.427 209.56L518.923 235.315L485.424 213.213L481.441 195.284L506.429 209.56H506.427ZM416.55 305.848L480.606 195.605L484.56 213.403L464.318 245.114L414.701 322.863L416.55 305.848ZM427.134 324.25H414.863L485.165 214.102L519.314 236.635L427.134 324.25Z" fill="#343438"/>
<path d="M369.152 145.68C369.158 145.71 369.158 145.738 369.168 145.764C369.172 145.778 369.172 145.79 369.174 145.802C369.18 145.818 369.19 145.832 369.2 145.85C369.204 145.86 369.204 145.874 369.21 145.88C369.216 145.886 369.22 145.886 369.224 145.893C369.262 145.947 369.308 145.991 369.366 146.025C369.372 146.031 369.386 146.035 369.396 146.039C369.453 146.069 369.519 146.089 369.587 146.089C369.627 146.089 369.667 146.083 369.711 146.069L500.53 106.85C500.546 106.844 500.554 106.83 500.57 106.824C500.586 106.818 500.604 106.82 500.62 106.814C500.654 106.794 500.684 106.766 500.712 106.736C500.716 106.732 500.722 106.732 500.722 106.73C500.77 106.681 500.802 106.619 500.82 106.551C500.824 106.545 500.83 106.541 500.83 106.531C500.834 106.525 500.83 106.521 500.83 106.515C500.844 106.455 500.846 106.393 500.834 106.333L493.941 75.5929C493.917 75.4891 493.861 75.3973 493.773 75.3334L473.629 60.4923C473.585 60.4624 473.539 60.4424 473.487 60.4284C473.483 60.4244 473.483 60.4224 473.481 60.4224C473.475 60.4224 473.465 60.4264 473.457 60.4224C473.407 60.4125 473.355 60.4125 473.302 60.4185C473.288 60.4224 473.272 60.4224 473.254 60.4244C473.2 60.4384 473.146 60.4624 473.098 60.4943C473.094 60.4983 473.092 60.5003 473.092 60.5043H473.086L369.304 145.303C369.304 145.303 369.294 145.319 369.284 145.327C369.268 145.346 369.25 145.366 369.236 145.386C369.216 145.41 369.202 145.43 369.188 145.454C369.178 145.478 369.172 145.502 369.164 145.524C369.158 145.552 369.15 145.578 369.148 145.604V145.678L369.152 145.68ZM439.314 113.482L484.945 92.113L499.56 106.217L375.222 143.494L439.316 113.482H439.314ZM473.174 61.5744L483.978 90.0567L484.472 91.3544L420.318 121.4L372.62 143.735L473.176 61.5744H473.174ZM499.653 105.083L485.41 91.3364L474.314 62.0914L493.118 75.9443L499.651 105.085L499.653 105.083Z" fill="#343438"/>
<path d="M462.483 49.109C462.477 49.139 462.473 49.1689 462.473 49.1989C462.477 49.2188 462.479 49.2428 462.483 49.2627C462.489 49.2927 462.497 49.3226 462.509 49.3526C462.513 49.3626 462.513 49.3725 462.515 49.3805C462.521 49.3905 462.529 49.3945 462.531 49.4005C462.545 49.4204 462.555 49.4444 462.568 49.4644C462.588 49.4903 462.622 49.5043 462.648 49.5243C462.664 49.5382 462.682 49.5542 462.702 49.5642C462.762 49.6021 462.834 49.6221 462.908 49.6221V49.6261H462.912V49.6221C462.97 49.6221 463.026 49.6121 463.088 49.5881L542.601 15.0707C542.762 15.0008 542.866 14.8411 542.866 14.6655V3.6075C542.866 3.59752 542.862 3.59353 542.862 3.58355C542.858 3.5536 542.858 3.52366 542.852 3.49171C542.842 3.46177 542.828 3.43781 542.814 3.40986C542.808 3.39988 542.804 3.3859 542.8 3.37592C542.762 3.31803 542.712 3.27411 542.659 3.23817C542.653 3.23418 542.653 3.22819 542.645 3.2242C542.639 3.21821 542.629 3.22021 542.621 3.21821C542.561 3.18826 542.497 3.16431 542.421 3.16431H502.66C502.537 3.16431 502.415 3.21821 502.329 3.31603L462.568 48.8954C462.568 48.8954 462.568 48.9014 462.563 48.9014C462.549 48.9214 462.543 48.9413 462.529 48.9613C462.515 48.9892 462.495 49.0152 462.489 49.0411C462.483 49.0611 462.483 49.0811 462.475 49.105L462.483 49.109ZM470.033 45.6114L541.986 4.36812V14.378L470.033 45.6094V45.6114ZM502.87 4.0487H540.768L464.971 47.4939L502.868 4.0487H502.87Z" fill="#343438"/>
<path d="M253.117 251.804C253.117 251.804 253.131 251.814 253.131 251.82C253.169 251.877 253.211 251.927 253.273 251.965C253.283 251.971 253.293 251.975 253.303 251.981C253.327 251.995 253.353 252.007 253.381 252.019C253.421 252.033 253.469 252.039 253.509 252.039H272.91C273.068 252.039 273.217 251.951 273.291 251.816L333.804 145.864C333.898 145.706 333.878 145.506 333.765 145.365L328.587 139.004C328.567 138.98 328.537 138.966 328.513 138.946C328.489 138.93 328.473 138.908 328.449 138.898C328.401 138.872 328.347 138.86 328.297 138.854C328.281 138.854 328.263 138.84 328.243 138.84H295.989C295.823 138.84 295.671 138.932 295.597 139.076L253.117 220.698C253.083 220.762 253.067 220.832 253.067 220.904V251.596C253.067 251.664 253.087 251.724 253.115 251.782C253.119 251.788 253.119 251.798 253.119 251.802L253.117 251.804ZM272.652 251.157H254.331L325.651 143.977L328.279 140.028L332.888 145.692L272.654 251.159L272.652 251.157ZM296.256 139.727H327.417L253.948 250.135V221.013L296.254 139.727H296.256Z" fill="#343438"/>
<path d="M128.826 175.44C128.83 175.46 128.838 175.48 128.844 175.498C128.854 175.522 128.868 175.546 128.882 175.568C128.892 175.584 128.906 175.602 128.92 175.616C128.926 175.622 128.93 175.632 128.936 175.64C128.944 175.65 128.958 175.654 128.968 175.66C128.994 175.684 129.02 175.699 129.05 175.717C129.07 175.727 129.09 175.733 129.112 175.741C129.125 175.745 129.135 175.755 129.149 175.757C129.181 175.763 129.213 175.767 129.245 175.767C129.309 175.767 129.377 175.751 129.437 175.723L153.548 164.065C153.688 163.997 153.782 163.859 153.794 163.703L157.967 115.061V115.055C157.967 115.055 157.963 115.039 157.963 115.031C157.963 114.988 157.963 114.948 157.953 114.906C157.947 114.886 157.937 114.868 157.929 114.848C157.917 114.822 157.909 114.794 157.892 114.77C157.878 114.75 157.858 114.732 157.842 114.716C157.826 114.7 157.814 114.678 157.794 114.666L157.788 114.662C157.768 114.648 157.746 114.642 157.726 114.632C157.7 114.618 157.676 114.602 157.648 114.594C157.644 114.594 157.642 114.59 157.64 114.59C157.624 114.584 157.604 114.586 157.588 114.586C157.558 114.58 157.528 114.576 157.498 114.576C157.476 114.58 157.454 114.586 157.432 114.59C157.406 114.596 157.38 114.6 157.354 114.614C157.33 114.62 157.312 114.634 157.292 114.648C157.275 114.662 157.255 114.668 157.237 114.682L128.954 138.95C128.856 139.03 128.8 139.156 128.8 139.284V175.326C128.8 175.336 128.806 175.346 128.806 175.36C128.81 175.388 128.812 175.414 128.822 175.442L128.826 175.44ZM152.937 163.376L130.174 174.384L150.258 131.56L156.877 117.447L152.937 163.374V163.376ZM129.689 139.487L156.256 116.694L129.689 173.344V139.487Z" fill="#343438"/>
<path d="M352.493 145.275C352.483 145.281 352.469 145.289 352.459 145.295L327.97 164.378C327.862 164.458 327.798 164.588 327.798 164.725V205.004C327.798 205.038 327.808 205.064 327.814 205.094C327.818 205.114 327.818 205.134 327.824 205.152C327.84 205.2 327.864 205.246 327.898 205.284C327.904 205.29 327.912 205.294 327.914 205.3C327.944 205.334 327.978 205.36 328.018 205.384C328.018 205.384 328.022 205.388 328.024 205.388C328.03 205.394 328.038 205.392 328.044 205.394C328.078 205.41 328.112 205.428 328.151 205.438C328.177 205.442 328.205 205.444 328.235 205.444H328.239C328.317 205.444 328.391 205.418 328.459 205.376C328.483 205.362 328.497 205.346 328.517 205.328C328.543 205.304 328.575 205.29 328.597 205.26L353.082 171.339C353.136 171.266 353.166 171.174 353.166 171.082V145.64C353.166 145.624 353.16 145.606 353.156 145.592C353.156 145.562 353.15 145.532 353.142 145.504C353.136 145.484 353.126 145.464 353.116 145.446C353.102 145.418 353.092 145.396 353.076 145.376C353.062 145.356 353.046 145.343 353.028 145.327C353.014 145.313 353.008 145.301 352.99 145.287C352.984 145.283 352.976 145.281 352.97 145.277C352.95 145.263 352.93 145.253 352.906 145.243C352.886 145.233 352.858 145.223 352.832 145.215C352.826 145.211 352.818 145.209 352.812 145.205C352.798 145.201 352.786 145.205 352.772 145.205C352.742 145.201 352.712 145.201 352.684 145.205C352.664 145.205 352.644 145.209 352.626 145.211C352.596 145.217 352.568 145.227 352.543 145.241C352.527 145.247 352.509 145.257 352.489 145.267L352.493 145.275ZM328.683 164.941L351.684 147.017L328.683 202.772V164.939V164.941ZM352.287 170.942L330.082 201.698L330.675 200.261L352.287 147.874V170.94V170.942Z" fill="#343438"/>
<path d="M575.003 98.0043C575.007 98.0303 575.009 98.0622 575.023 98.0882C575.023 98.0982 575.023 98.1082 575.027 98.1141C575.031 98.1241 575.041 98.1281 575.043 98.1381C575.057 98.1581 575.063 98.182 575.077 98.202C575.097 98.2319 575.131 98.2499 575.159 98.2719C575.179 98.2858 575.193 98.3058 575.213 98.3198C575.281 98.3577 575.355 98.3837 575.436 98.3837C575.484 98.3837 575.526 98.3777 575.57 98.3637L619.814 84.0536C619.891 84.0277 619.965 83.9798 620.019 83.9159L633.735 67.4877C633.741 67.4777 633.741 67.4677 633.749 67.4577C633.769 67.4338 633.783 67.4078 633.797 67.3799C633.803 67.3639 633.811 67.3459 633.813 67.33C633.823 67.302 633.827 67.2721 633.829 67.2461C633.829 67.2261 633.833 67.2082 633.833 67.1882C633.833 67.1822 633.837 67.1742 633.837 67.1642C633.833 67.1583 633.827 67.1503 633.823 67.1443C633.813 67.0704 633.789 66.9966 633.743 66.9327C633.739 66.9327 633.739 66.9287 633.739 66.9287H633.735C633.687 66.8648 633.621 66.8249 633.546 66.7969C633.54 66.7929 633.532 66.7869 633.526 66.7829L613.446 60.4245C613.29 60.3746 613.122 60.4145 613.006 60.5283L575.121 97.629C575.121 97.629 575.115 97.639 575.107 97.643C575.091 97.663 575.081 97.6869 575.063 97.7109C575.049 97.7308 575.033 97.7548 575.025 97.7788C575.011 97.8027 575.011 97.8267 575.005 97.8486C574.999 97.8746 574.991 97.9025 574.991 97.9285C574.991 97.9544 574.995 97.9764 574.997 98.0023L575.003 98.0043ZM619.418 83.2511L580.097 95.974L631.611 68.6516L619.418 83.2531V83.2511ZM613.434 61.3448L632.258 67.308L577.924 96.1218L613.434 61.3448Z" fill="#343438"/>
<path d="M519.803 145.646C519.803 149.623 516.579 152.851 512.601 152.851C508.623 152.851 505.395 149.623 505.395 145.646C505.395 141.669 508.619 138.441 512.601 138.441C516.583 138.441 519.803 141.665 519.803 145.646Z" fill="#343438"/>
<path d="M45.575 324.689C45.575 328.666 42.3501 331.89 38.3705 331.89C34.3909 331.89 31.166 328.666 31.166 324.689C31.166 320.713 34.3909 317.484 38.3705 317.484C42.3501 317.484 45.575 320.709 45.575 324.689Z" fill="#343438"/>
<path d="M359.934 640.836C359.934 644.815 356.71 648.041 352.728 648.041C348.746 648.041 345.521 644.817 345.521 640.836C345.521 636.856 348.746 633.631 352.728 633.631C356.71 633.631 359.934 636.86 359.934 640.836Z" fill="#343438"/>
<path d="M146.6 535.146C146.6 540.117 142.566 544.152 137.594 544.152C132.622 544.152 128.588 540.119 128.588 535.146C128.588 530.173 132.62 526.144 137.594 526.144C142.568 526.144 146.6 530.175 146.6 535.146Z" fill="#343438"/>
<path d="M186.472 324.689C186.472 329.66 182.44 333.691 177.466 333.691C172.492 333.691 168.463 329.66 168.463 324.689C168.463 319.718 172.494 315.684 177.466 315.684C182.438 315.684 186.472 319.718 186.472 324.689Z" fill="#343438"/>
<path d="M17.7015 554.613C17.7015 559.584 13.6699 563.618 8.69587 563.618C3.72182 563.618 -0.307739 559.586 -0.307739 554.613C-0.307739 549.64 3.72381 545.611 8.69587 545.611C13.6679 545.611 17.7015 549.642 17.7015 554.613Z" fill="#343438"/>
<path d="M466.792 319.485C466.792 323.462 463.567 326.686 459.589 326.686C455.612 326.686 452.383 323.462 452.383 319.485C452.383 315.508 455.608 312.28 459.589 312.28C463.571 312.28 466.792 315.504 466.792 319.485Z" fill="#343438"/>
<path d="M89.1593 416.397C89.1593 420.376 85.9345 423.602 81.9548 423.602C77.9752 423.602 74.7504 420.378 74.7504 416.397C74.7504 412.416 77.9752 409.196 81.9548 409.196C85.9345 409.196 89.1593 412.42 89.1593 416.397Z" fill="#343438"/>
<path d="M240.31 441.504C240.31 445.484 237.085 448.709 233.103 448.709C229.122 448.709 225.901 445.484 225.901 441.504C225.901 437.523 229.126 434.307 233.103 434.307C237.081 434.307 240.31 437.531 240.31 441.504Z" fill="#343438"/>
<path d="M260.713 593.556C260.713 597.533 257.488 600.757 253.507 600.757C249.525 600.757 246.3 597.533 246.3 593.556C246.3 589.579 249.525 586.351 253.507 586.351C257.488 586.351 260.713 589.575 260.713 593.556Z" fill="#343438"/>
<path d="M376.79 145.646C376.79 149.623 373.565 152.851 369.587 152.851C365.61 152.851 362.385 149.623 362.385 145.646C362.385 141.669 365.61 138.441 369.587 138.441C373.565 138.441 376.79 141.665 376.79 145.646Z" fill="#343438"/>
<path d="M136.452 245.884C136.452 249.861 133.227 253.085 129.247 253.085C125.268 253.085 122.041 249.861 122.041 245.884C122.041 241.907 125.268 238.679 129.247 238.679C133.227 238.679 136.452 241.903 136.452 245.884Z" fill="#343438"/>
<path d="M377.944 75.6868C377.944 78.867 375.366 81.4463 372.183 81.4463C369 81.4463 366.42 78.867 366.42 75.6868C366.42 72.5065 368.998 69.9232 372.183 69.9232C375.368 69.9232 377.944 72.5025 377.944 75.6868Z" fill="#343438"/>
<path d="M412.339 349.722C412.339 352.902 409.761 355.484 406.576 355.484C403.391 355.484 400.813 352.904 400.813 349.722C400.813 346.54 403.393 343.958 406.576 343.958C409.759 343.958 412.339 346.538 412.339 349.722Z" fill="#343438"/>
<path d="M380.534 197.584C380.534 200.768 377.956 203.347 374.773 203.347C371.59 203.347 369.01 200.768 369.01 197.584C369.01 194.4 371.588 191.822 374.773 191.822C377.958 191.822 380.534 194.402 380.534 197.584Z" fill="#343438"/>
<path d="M163.293 197.584C163.293 200.768 160.713 203.347 157.528 203.347C154.343 203.347 151.767 200.768 151.767 197.584C151.767 194.4 154.347 191.822 157.528 191.822C160.709 191.822 163.293 194.402 163.293 197.584Z" fill="#343438"/>
<path d="M129.265 213.483C129.265 216.671 126.685 219.246 123.502 219.246C120.32 219.246 117.74 216.669 117.74 213.483C117.74 210.297 120.32 207.723 123.502 207.723C126.685 207.723 129.265 210.303 129.265 213.483Z" fill="#343438"/>
<path d="M20.6208 266.718C20.6208 269.903 18.041 272.482 14.8561 272.482C11.6711 272.482 9.09326 269.903 9.09326 266.718C9.09326 263.534 11.6731 260.957 14.8561 260.957C18.039 260.957 20.6208 263.536 20.6208 266.718Z" fill="#343438"/>
<path d="M412.339 569.448C412.339 572.632 409.761 575.211 406.576 575.211C403.391 575.211 400.813 572.632 400.813 569.448C400.813 566.263 403.393 563.688 406.576 563.688C409.759 563.688 412.339 566.267 412.339 569.448Z" fill="#343438"/>
<path d="M44.1333 191.225C44.1333 194.406 41.5534 196.987 38.3705 196.987C35.1876 196.987 32.6097 194.408 32.6097 191.225C32.6097 188.043 35.1876 185.462 38.3705 185.462C41.5534 185.462 44.1333 188.041 44.1333 191.225Z" fill="#343438"/>
<path d="M497.11 527.534C496.948 529.52 495.211 530.997 493.224 530.836C491.241 530.678 489.763 528.939 489.921 526.953C490.079 524.966 491.82 523.489 493.805 523.651C495.792 523.808 497.269 525.545 497.112 527.534H497.11Z" fill="#343438"/>
<path d="M497.11 416.687C496.948 418.669 495.211 420.15 493.224 419.993C491.241 419.831 489.763 418.094 489.921 416.108C490.079 414.125 491.82 412.644 493.805 412.806C495.792 412.963 497.269 414.704 497.112 416.689L497.11 416.687Z" fill="#343438"/>
<path d="M543.687 333.983C543.529 335.965 541.788 337.446 539.803 337.289C537.82 337.127 536.335 335.39 536.497 333.404C536.658 331.421 538.396 329.94 540.382 330.102C542.365 330.259 543.843 332 543.685 333.985L543.687 333.983Z" fill="#343438"/>
<path d="M488.629 213.772C488.467 215.759 486.726 217.24 484.743 217.078C482.758 216.921 481.283 215.18 481.441 213.193C481.598 211.211 483.34 209.73 485.324 209.891C487.311 210.053 488.789 211.79 488.631 213.774L488.629 213.772Z" fill="#343438"/>
<path d="M523.615 236.859C523.457 238.845 521.716 240.322 519.731 240.165C517.747 240.003 516.263 238.266 516.425 236.28C516.586 234.297 518.324 232.816 520.311 232.978C522.295 233.135 523.771 234.876 523.613 236.861L523.615 236.859Z" fill="#343438"/>
<path d="M573.378 212.255C573.216 214.238 571.475 215.719 569.492 215.557C567.507 215.399 566.023 213.659 566.185 211.674C566.347 209.688 568.088 208.211 570.071 208.368C572.054 208.53 573.531 210.271 573.378 212.253V212.255Z" fill="#343438"/>
<path d="M579.033 292.142C578.871 294.129 577.134 295.606 575.147 295.448C573.164 295.287 571.682 293.55 571.84 291.563C572.002 289.579 573.743 288.1 575.726 288.261C577.711 288.423 579.186 290.16 579.033 292.144V292.142Z" fill="#343438"/>
<path d="M257.101 249.815C256.943 251.798 255.202 253.279 253.217 253.121C251.23 252.959 249.753 251.219 249.91 249.236C250.072 247.254 251.809 245.772 253.796 245.934C255.781 246.092 257.257 247.833 257.099 249.817L257.101 249.815Z" fill="#343438"/>
<path d="M132.167 593.845C132.007 595.828 130.268 597.305 128.283 597.147C126.296 596.986 124.818 595.249 124.978 593.264C125.138 591.278 126.879 589.797 128.862 589.958C130.847 590.12 132.326 591.857 132.167 593.843V593.845Z" fill="#343438"/>
<path d="M121.715 661.525C121.556 663.507 119.816 664.984 117.832 664.827C115.847 664.669 114.367 662.928 114.527 660.944C114.687 658.957 116.428 657.476 118.411 657.638C120.395 657.8 121.875 659.536 121.715 661.523V661.525Z" fill="#343438"/>
<path d="M156.951 661.525C156.793 663.507 155.054 664.984 153.067 664.827C151.082 664.669 149.603 662.928 149.761 660.944C149.922 658.957 151.662 657.476 153.646 657.638C155.631 657.8 157.109 659.536 156.949 661.523L156.951 661.525Z" fill="#343438"/>
<path d="M388.968 454.394C388.807 456.379 387.069 457.854 385.083 457.7C383.1 457.539 381.622 455.798 381.78 453.815C381.938 451.833 383.679 450.356 385.664 450.509C387.65 450.671 389.128 452.412 388.97 454.394H388.968Z" fill="#343438"/>
<path d="M362.465 468.469C362.303 470.455 360.562 471.933 358.579 471.771C356.592 471.613 355.114 469.876 355.272 467.892C355.434 465.901 357.171 464.424 359.158 464.586C361.143 464.744 362.622 466.484 362.465 468.469Z" fill="#343438"/>
<path d="M432.439 499.279C432.277 501.263 430.536 502.739 428.553 502.581C426.57 502.423 425.089 500.682 425.246 498.698C425.408 496.712 427.149 495.234 429.132 495.392C431.115 495.554 432.597 497.29 432.439 499.277V499.279Z" fill="#343438"/>
<path d="M316.45 370.408C316.288 372.395 314.551 373.872 312.564 373.714C310.58 373.553 309.1 371.816 309.262 369.829C309.419 367.847 311.161 366.366 313.145 366.527C315.132 366.685 316.61 368.426 316.452 370.41L316.45 370.408Z" fill="#343438"/>
<path d="M410.174 246.172C410.013 248.158 408.271 249.635 406.289 249.478C404.306 249.316 402.824 247.579 402.982 245.593C403.144 243.61 404.885 242.133 406.868 242.291C408.851 242.448 410.328 244.189 410.174 246.174V246.172Z" fill="#343438"/>
<path d="M292.904 654.178C292.746 656.162 291.007 657.638 289.024 657.48C287.037 657.322 285.556 655.582 285.717 653.597C285.875 651.611 287.616 650.129 289.603 650.291C291.586 650.453 293.064 652.19 292.902 654.176L292.904 654.178Z" fill="#343438"/>
<path d="M419.713 589.012C419.551 590.999 417.814 592.476 415.827 592.314C413.845 592.157 412.367 590.42 412.525 588.431C412.682 586.445 414.424 584.968 416.408 585.129C418.395 585.287 419.877 587.028 419.715 589.012H419.713Z" fill="#343438"/>
<path d="M519.374 441.625C519.212 443.608 517.475 445.093 515.488 444.931C513.505 444.77 512.028 443.029 512.185 441.046C512.343 439.064 514.084 437.587 516.069 437.74C518.056 437.902 519.534 439.643 519.376 441.625H519.374Z" fill="#343438"/>
<path d="M331.834 175.898C331.676 177.883 329.939 179.362 327.95 179.2C325.965 179.039 324.486 177.302 324.643 175.318C324.805 173.331 326.546 171.854 328.529 172.012C330.516 172.173 331.994 173.91 331.832 175.897L331.834 175.898Z" fill="#343438"/>
<path d="M331.834 139.575C331.676 141.557 329.939 143.039 327.95 142.877C325.965 142.719 324.486 140.978 324.643 138.994C324.805 137.008 326.546 135.53 328.529 135.688C330.516 135.85 331.994 137.587 331.832 139.573L331.834 139.575Z" fill="#343438"/>
<path d="M248.758 145.931C248.597 147.918 246.855 149.399 244.873 149.237C242.888 149.08 241.408 147.339 241.566 145.353C241.728 143.37 243.465 141.893 245.452 142.05C247.434 142.212 248.916 143.949 248.758 145.933V145.931Z" fill="#343438"/>
<path d="M236.702 106.712C236.54 108.699 234.803 110.176 232.816 110.019C230.833 109.857 229.355 108.12 229.513 106.134C229.671 104.151 231.412 102.67 233.397 102.832C235.384 102.993 236.865 104.73 236.704 106.714L236.702 106.712Z" fill="#343438"/>
<path d="M161.124 115.307C160.965 117.293 159.227 118.771 157.241 118.613C155.256 118.451 153.774 116.714 153.934 114.728C154.096 112.746 155.835 111.264 157.82 111.426C159.804 111.584 161.282 113.325 161.122 115.309L161.124 115.307Z" fill="#343438"/>
<path d="M466.508 49.4763C466.35 51.4587 464.609 52.94 462.624 52.7783C460.642 52.6206 459.156 50.8798 459.318 48.8954C459.479 46.909 461.221 45.4316 463.203 45.5894C465.186 45.7511 466.664 47.4879 466.506 49.4743L466.508 49.4763Z" fill="#343438"/>
<path d="M545.816 3.89694C545.654 5.87935 543.913 7.36066 541.93 7.19895C539.947 7.04124 538.469 5.3004 538.627 3.31599C538.785 1.33359 540.526 -0.147728 542.511 0.00998606C544.498 0.171693 545.975 1.91254 545.818 3.89494L545.816 3.89694Z" fill="#343438"/>
<path d="M488.629 91.8775C488.467 93.8599 486.726 95.3372 484.743 95.1795C482.758 95.0178 481.283 93.281 481.441 91.2965C481.598 89.3102 483.34 87.8328 485.324 87.9905C487.311 88.1523 488.789 89.8891 488.631 91.8755L488.629 91.8775Z" fill="#343438"/>
<path d="M636.988 175.616C636.83 177.598 635.093 179.079 633.104 178.918C631.121 178.756 629.64 177.019 629.802 175.035C629.959 173.048 631.698 171.571 633.687 171.729C635.672 171.89 637.148 173.627 636.986 175.614L636.988 175.616Z" fill="#343438"/>
<path d="M579.033 98.2339C578.871 100.22 577.134 101.698 575.147 101.54C573.164 101.378 571.682 99.6413 571.84 97.6549C572.002 95.6725 573.743 94.1912 575.726 94.3529C577.711 94.5106 579.186 96.2515 579.033 98.2359V98.2339Z" fill="#343438"/>
</g>
<defs>
<clipPath id="clip0_1_5">
<rect width="895" height="693" fill="white" transform="translate(-258)"/>
</clipPath>
</defs>
</svg>
