<svg width="895" height="693" viewBox="0 0 895 693" fill="none" xmlns="http://www.w3.org/2000/svg">
<g clip-path="url(#clip0_1_5)">
<path d="M674.552 588.649C674.548 588.633 674.542 588.615 674.536 588.599C674.53 588.565 674.516 588.539 674.498 588.505C674.494 588.499 674.494 588.491 674.488 588.481C674.482 588.475 674.474 588.471 674.468 588.465C674.448 588.439 674.428 588.411 674.4 588.391C674.386 588.377 674.372 588.367 674.361 588.357C674.355 588.353 674.351 588.351 674.345 588.343C674.321 588.329 674.287 588.319 674.261 588.309C674.247 588.305 674.241 588.3 674.227 588.296C674.179 588.286 674.129 588.282 674.079 588.286C674.073 588.286 674.059 588.29 674.051 588.292C674.011 588.298 673.971 588.307 673.937 588.325C673.931 588.329 673.923 588.329 673.917 588.331L626.142 613.045L687.232 499.199C687.256 499.155 687.27 499.111 687.276 499.063C687.276 499.063 687.28 499.063 687.28 499.059L716.964 319.557V319.547C716.97 319.523 716.964 319.499 716.964 319.479C716.964 319.449 716.964 319.419 716.958 319.387C716.955 319.367 716.945 319.349 716.939 319.329C716.925 319.299 716.919 319.271 716.899 319.245C716.889 319.229 716.873 319.215 716.859 319.197C716.839 319.173 716.819 319.149 716.791 319.129C716.785 319.123 716.781 319.119 716.777 319.115C716.761 319.105 716.743 319.102 716.729 319.096C716.709 319.086 716.695 319.072 716.675 319.066C716.665 319.062 716.655 319.062 716.649 319.06C716.621 319.054 716.595 319.054 716.571 319.05C716.543 319.046 716.517 319.046 716.491 319.046C716.467 319.05 716.443 319.056 716.421 319.062C716.393 319.068 716.367 319.076 716.343 319.09C716.32 319.1 716.304 319.113 716.284 319.127C716.26 319.143 716.236 319.161 716.216 319.185C716.206 319.195 716.196 319.199 716.186 319.209L637.292 418.497L664.996 349.888C665.005 349.86 665.009 349.83 665.015 349.804C665.015 349.788 665.021 349.774 665.021 349.76C665.027 349.712 665.021 349.666 665.012 349.618V349.614C665.008 349.604 665.005 349.598 665.002 349.59C664.988 349.552 664.976 349.52 664.958 349.488C664.948 349.472 664.934 349.458 664.92 349.445C664.906 349.429 664.892 349.407 664.88 349.391C664.874 349.387 664.87 349.387 664.866 349.385C664.85 349.371 664.832 349.361 664.816 349.351C664.792 349.337 664.772 349.325 664.746 349.313C664.73 349.307 664.708 349.299 664.688 349.297C664.664 349.291 664.638 349.283 664.61 349.283C664.6 349.283 664.59 349.279 664.582 349.279H611.537L674.476 249.795L770.928 145.943C770.934 145.929 770.942 145.917 770.948 145.904C770.972 145.874 770.988 145.846 771.002 145.816C771.012 145.796 771.016 145.776 771.022 145.756C771.028 145.726 771.036 145.696 771.038 145.664C771.038 145.64 771.034 145.62 771.034 145.596C771.03 145.566 771.024 145.538 771.014 145.508C771.008 145.484 771 145.464 770.986 145.444C770.982 145.43 770.98 145.42 770.972 145.406C770.962 145.39 770.946 145.38 770.932 145.362C770.926 145.352 770.918 145.339 770.908 145.329C770.904 145.323 770.898 145.319 770.892 145.315C770.866 145.291 770.834 145.275 770.804 145.257C770.788 145.247 770.771 145.237 770.755 145.229C770.717 145.215 770.683 145.209 770.651 145.205C770.631 145.205 770.617 145.199 770.601 145.199C770.551 145.199 770.497 145.205 770.445 145.225H770.441L632.619 197.167C632.605 197.171 632.599 197.183 632.585 197.187C632.569 197.197 632.551 197.197 632.535 197.206L469.584 302.18L503.589 178.614C503.595 178.59 503.593 178.566 503.595 178.544C503.595 178.528 503.605 178.514 503.605 178.496V145.638C503.605 145.462 503.504 145.307 503.346 145.237C503.188 145.163 503.002 145.189 502.875 145.305L387.052 245.467L332.698 255.898L381.794 213.812C381.794 213.812 381.798 213.806 381.802 213.798C381.834 213.772 381.856 213.741 381.88 213.705C381.884 213.699 381.892 213.691 381.896 213.685C381.92 213.641 381.934 213.593 381.944 213.543C381.944 213.529 381.944 213.517 381.944 213.503C381.944 213.473 381.95 213.443 381.944 213.413C381.944 213.407 381.94 213.403 381.94 213.397C381.94 213.381 381.93 213.363 381.924 213.347C381.914 213.317 381.902 213.287 381.884 213.255C381.88 213.249 381.88 213.241 381.876 213.235C381.87 213.225 381.858 213.221 381.85 213.211C381.832 213.186 381.81 213.164 381.784 213.142C381.768 213.132 381.754 213.118 381.738 213.108C381.71 213.094 381.686 213.082 381.656 213.07C381.638 213.064 381.618 213.056 381.598 213.05C381.59 213.05 381.582 213.046 381.574 213.044L329.362 204.565C329.214 204.539 329.066 204.593 328.966 204.703L300.666 235.527L296.812 191.181C296.812 191.165 296.802 191.147 296.798 191.132C296.792 191.102 296.788 191.074 296.776 191.052C296.768 191.028 296.752 191.012 296.74 190.992C296.726 190.968 296.714 190.948 296.696 190.928C296.68 190.908 296.656 190.894 296.636 190.878C296.62 190.868 296.61 190.85 296.592 190.84C296.586 190.84 296.582 190.836 296.578 190.836C296.556 190.822 296.532 190.82 296.508 190.81C296.482 190.804 296.458 190.794 296.432 190.79C296.426 190.786 296.424 190.786 296.418 190.784C296.402 190.784 296.384 190.788 296.368 190.788C296.341 190.788 296.309 190.788 296.283 190.794C296.261 190.798 296.241 190.808 296.221 190.814C296.195 190.824 296.171 190.83 296.147 190.848C296.125 190.858 296.107 190.874 296.087 190.892C296.071 190.906 296.055 190.912 296.041 190.926L233.447 259.829C233.343 259.947 233.305 260.108 233.355 260.26C233.403 260.412 233.527 260.524 233.683 260.558L269.779 268.254L209.198 291.442C209.188 291.446 209.182 291.452 209.174 291.456C209.146 291.47 209.12 291.486 209.096 291.506C209.076 291.52 209.056 291.531 209.038 291.553C209.032 291.559 209.022 291.563 209.018 291.569L124.477 391.159C124.477 391.159 124.473 391.169 124.471 391.173C124.455 391.193 124.445 391.213 124.433 391.233C124.419 391.259 124.405 391.283 124.395 391.311C124.395 391.317 124.389 391.321 124.387 391.327L90.0761 517.414C90.0561 517.492 90.0561 517.576 90.0761 517.654L107.592 578.479L65.6171 597.788C65.4354 597.872 65.3296 598.068 65.3675 598.263L75.2617 653.962C75.2617 653.972 75.2697 653.982 75.2717 653.99C75.2757 654.014 75.2857 654.034 75.2937 654.054C75.3037 654.078 75.3156 654.104 75.3316 654.124C75.3436 654.144 75.3576 654.158 75.3716 654.174C75.3915 654.198 75.4115 654.218 75.4375 654.234C75.4454 654.24 75.4534 654.25 75.4634 654.258C75.4694 654.262 75.4734 654.262 75.4794 654.264C75.5313 654.29 75.5872 654.318 75.6491 654.324H75.699C75.7769 654.324 75.8468 654.298 75.9147 654.264C75.9327 654.25 75.9506 654.238 75.9666 654.224C75.9886 654.204 76.0145 654.198 76.0325 654.176L130.935 591.24L144.589 598.431L124.377 738.26C124.367 738.324 124.377 738.385 124.393 738.441C124.397 738.455 124.403 738.461 124.409 738.475C124.431 738.535 124.465 738.583 124.507 738.627C124.515 738.637 124.517 738.647 124.525 738.653C124.531 738.659 124.541 738.663 124.551 738.669C124.571 738.683 124.593 738.695 124.617 738.707C124.643 738.721 124.669 738.731 124.699 738.741C124.709 738.745 124.717 738.751 124.729 738.755C124.757 738.759 124.787 738.761 124.815 738.765C124.868 738.765 124.92 738.751 124.968 738.731H124.978L247.706 689.698V748.519L158.892 798.484C158.892 798.484 158.88 798.494 158.874 798.498C158.848 798.514 158.824 798.538 158.802 798.558C158.788 798.572 158.774 798.584 158.762 798.598C158.742 798.626 158.728 798.652 158.714 798.686C158.706 798.7 158.696 798.714 158.69 798.734C158.678 798.768 158.674 798.804 158.674 798.842C158.674 798.856 158.668 798.868 158.668 798.882C158.668 798.886 158.668 798.886 158.668 798.886C158.672 798.94 158.684 798.99 158.702 799.037C158.702 799.037 158.702 799.037 158.702 799.041C158.702 799.045 158.706 799.045 158.708 799.047C158.74 799.117 158.792 799.179 158.858 799.227C158.862 799.233 158.866 799.237 158.872 799.241C158.916 799.267 158.964 799.289 159.02 799.301L285.152 825.763H285.168C285.168 825.763 285.174 825.767 285.176 825.767L420.562 846.162C420.584 846.166 420.608 846.168 420.628 846.168C420.662 846.168 420.696 846.162 420.732 846.154L540.199 817.258C540.223 817.254 540.239 817.242 540.259 817.232C540.279 817.227 540.297 817.219 540.313 817.208C540.361 817.183 540.407 817.145 540.441 817.101C540.441 817.097 540.447 817.095 540.455 817.091L581.403 761.122L660.678 662.357C660.722 662.299 660.756 662.233 660.768 662.162L674.552 588.801L674.548 588.797C674.552 588.777 674.552 588.763 674.552 588.749C674.552 588.715 674.552 588.679 674.548 588.645L674.552 588.649ZM539.881 816.384L534.27 816.178L470.666 813.835L579.664 762.013L539.879 816.386L539.881 816.384ZM131.043 590.298V590.294L119.779 584.361L109.511 578.95L166.438 570.057L144.954 597.627L131.043 590.298ZM632.643 198.193L664.037 245.864L637.052 281.633L570.692 369.6L498.006 345.208L436.479 324.564L632.643 198.195V198.193ZM612.172 639.073L625.403 614.422L670.609 591.033L612.172 639.075V639.073ZM415.86 293.49L434.68 324.246H297.555L387.143 246.557L415.86 293.49ZM627.771 442.055L638.101 450.406L642.723 454.143L521.343 582.504L617.204 468.165C617.234 468.131 617.258 468.091 617.278 468.048L627.769 442.055H627.771ZM166.859 569.094L108.648 578.188L125.02 462.697L166.859 569.096V569.094ZM212.596 428.024L239.575 337.953L338.813 416.138L329.448 417.018L212.596 428.024ZM490.786 442.44L510.956 592.779L396.341 535.03L421.564 510.301L490.786 442.44ZM511.02 593.803L490.876 729.14L396.562 536.128L411.844 543.828L511.02 593.803ZM285.568 350.109L324.478 398.09L337.115 413.676L241.306 338.189L285.568 350.109ZM490.171 441.799L395.726 534.395L353.331 443.963L340.71 417.046L470.105 438.473L490.171 441.799ZM411.742 661.004L387.99 596.139L490.185 730.136L439.386 728.318L445.632 700.945C445.632 700.935 445.632 700.925 445.632 700.915C445.632 700.909 445.638 700.905 445.638 700.895C445.638 700.885 445.634 700.875 445.634 700.865C445.634 700.826 445.634 700.786 445.622 700.748C445.618 700.734 445.616 700.718 445.61 700.704C445.594 700.656 445.57 700.606 445.536 700.566V700.562L411.738 661.006L411.742 661.004ZM438.455 728.431L363.895 762.943L444.502 701.93L438.455 728.433V728.431ZM365.089 763.364L438.929 729.188L488.102 730.945L365.091 763.364H365.089ZM488.745 726.79L387.038 593.434L395.812 536.605L405.506 556.441L488.745 726.79ZM394.939 534.797L356.061 540.668L267.497 554.044L339.929 417.463L391.752 527.999L394.939 534.795V534.797ZM212.63 428.908L339.178 416.992L266.736 553.594L248.721 512.082L212.63 428.908ZM395.061 535.671L377.73 647.889L375.814 660.315L267.64 554.916L395.063 535.671H395.061ZM386.746 595.315L410.876 661.205L361.221 762.302L376.554 661.297L386.746 595.315ZM411.457 662.028L444.562 700.774L361.57 763.592L395.105 695.315L411.457 662.026V662.028ZM490.482 731.23L468.555 813.587L361.668 765.177L490.482 731.23ZM337.97 413.325L286.333 349.646L289.402 342.361L296.394 325.767L321.472 378.586L337.968 413.325H337.97ZM285.564 349.191L241.201 337.249L295.632 325.302L285.564 349.191ZM125.735 460.16L182.247 350.804L211.414 428.268L125.735 460.162V460.16ZM212.049 429.785L266.061 554.261L168.105 568.907L212.049 429.785ZM549.129 654.284L608.867 641.677L493.33 728.386L549.129 654.286V654.284ZM491.798 728.954L511.766 594.808L548.338 653.859L491.798 728.954ZM490.341 440.929L340.893 416.184L435.33 325.432L464.851 387.414L490.341 440.931V440.929ZM340.089 415.73L338.942 413.319L297.067 325.131H434.368L340.089 415.73ZM211.935 427.148L182.904 350.041L238.701 337.796L211.937 427.148H211.935ZM125.392 461.234L211.29 429.254L167.428 568.126L157.47 542.804L125.394 461.236L125.392 461.234ZM267.013 555.541L299.03 586.736L375.22 660.978L248.673 688.48L257.894 621.631L267.013 555.541ZM467.158 813.926L354.358 824.841L360.73 765.722L467.16 813.926H467.158ZM353.491 824.653L249.805 772.745L359.859 765.544L353.491 824.653ZM491.411 731.18L524.953 742.462L579.878 760.931L469.52 813.397L491.411 731.178V731.18ZM609.358 640.675L549.087 653.39L512.673 594.602L572.363 623.045L609.358 640.675ZM491.251 440.783L452.848 360.163L436.311 325.44L569.991 370.299L551.551 386.805L491.249 440.783H491.251ZM273.489 329.259L183.82 348.939L271.177 268.877L295.745 324.376L273.489 329.259ZM185.923 567.138L266.177 555.142L247.868 687.841L168.229 569.787L185.921 567.14L185.923 567.138ZM333.485 670.952L375.586 661.802L360.023 764.314L284.693 713.275L249.252 689.26L333.487 670.954L333.485 670.952ZM356.115 825.557L464.294 815.092L467.104 814.819L420.562 845.248L356.115 825.557ZM580.74 760.292L544.903 748.242L492.04 730.464L524.546 706.068L609.997 641.938L605.505 660.123L580.74 760.292ZM616.054 468.167L511.808 592.506L491.625 442.073L532.074 450.551L616.054 468.167ZM339.234 286.938L296.53 323.969L280.448 287.645L271.959 268.467L385.712 246.631L339.234 286.94V286.938ZM181.911 349.53L125.258 459.164V391.61L207.56 294.656L181.911 349.53ZM145.494 598.371L166.53 571.378L126.472 729.975L145.496 598.371H145.494ZM359.038 764.714L280.983 769.82L248.589 771.939V689.881L359.038 764.714ZM285.47 824.891L249.511 773.59L351.99 824.891H285.468H285.47ZM624.686 613.889L619.215 624.085L610.539 640.257L512.242 593.416L540.886 563.129L643.376 454.748L686.297 499.065L624.686 613.889ZM686.547 498.055L643.915 454.033L710.826 330.898L715.661 322L686.547 498.053V498.055ZM713.714 323.735L645.642 449L643.234 453.432L628.118 441.202L636.118 421.384L713.716 323.735H713.714ZM616.597 467.379L569.806 457.566L492.391 441.33L583.26 393.251L663.712 350.68L616.597 467.379ZM494.091 439.429L571.149 370.452C571.169 370.432 571.189 370.413 571.203 370.389L586.459 350.169H662.795L494.093 439.429H494.091ZM587.126 349.285L664.73 246.417L673.454 249.749L610.485 349.285H587.126ZM673.997 249.009L665.391 245.723L761.016 155.312L673.995 249.009H673.997ZM664.656 245.203L645.245 215.729L633.444 197.805L768.694 146.836L664.654 245.203H664.656ZM436.505 323.496L501.313 183.537L468.466 302.907L442.727 319.487L436.505 323.494V323.496ZM502.717 178.409L435.41 323.759L387.816 245.976L502.717 146.614V178.411V178.409ZM274.434 267.092L280.757 263.955L378.525 215.455L330.945 256.243L278.148 266.379L274.434 267.094V267.092ZM329.452 205.481L380.071 213.701L273.263 266.685L294.577 243.469L329.452 205.481ZM281.43 256.485L272.381 266.341L296.117 193.427L299.853 236.417L281.43 256.485ZM295.31 193.046L271.035 267.621L234.619 259.853L295.31 193.044V193.046ZM258.968 278.87L183.651 347.895L209.681 292.206L269.324 269.38L258.968 278.87ZM124.375 394.752V460.946L107.977 576.613L90.9646 517.528L124.375 394.752ZM107.265 579.605L75.8787 652.363L66.302 598.449L107.265 579.605ZM77.2266 651.469L108.343 579.336L117.6 584.217L130.136 590.821L77.2266 651.471V651.469ZM167.658 570.516L178.669 586.84L247.477 688.839L125.456 737.597L167.656 570.516H167.658ZM247.706 772.08L162.754 797.329L247.706 749.535V772.078V772.08ZM247.97 772.923L270.406 804.937L284.24 824.671L160.907 798.798L247.972 772.921L247.97 772.923ZM291.137 825.775H353.797L414.761 844.399L291.137 825.775ZM468.973 814.655L536.882 817.161L423.012 844.699L468.973 814.653V814.655ZM659.92 661.894L581.964 759.024L611.118 641.088L673.46 589.839L659.918 661.894H659.92Z" fill="#343438"/>
<path d="M751.949 416.497C751.953 416.481 751.953 416.463 751.949 416.447C751.945 416.379 751.933 416.313 751.899 416.255V416.251H751.893C751.859 416.194 751.813 416.15 751.757 416.114C751.741 416.104 751.723 416.094 751.709 416.086C751.695 416.076 751.681 416.066 751.661 416.058C751.617 416.042 751.569 416.034 751.523 416.034C751.519 416.034 751.517 416.03 751.517 416.03H725.008C724.828 416.03 724.664 416.142 724.596 416.309L664.167 569.282C664.161 569.298 664.163 569.316 664.161 569.33C664.155 569.356 664.147 569.384 664.145 569.414C664.141 569.438 664.141 569.464 664.145 569.484C664.149 569.514 664.155 569.542 664.161 569.567C664.167 569.591 664.175 569.611 664.187 569.635C664.197 569.659 664.213 569.683 664.227 569.705C664.243 569.725 664.261 569.745 664.281 569.763C664.287 569.773 664.295 569.779 664.301 569.787C664.315 569.801 664.335 569.807 664.351 569.817C664.361 569.823 664.374 569.833 664.388 569.841C664.394 569.847 664.398 569.845 664.408 569.847C664.462 569.871 664.516 569.887 664.576 569.887C664.644 569.887 664.712 569.863 664.772 569.833C664.788 569.827 664.802 569.813 664.82 569.807C664.836 569.793 664.858 569.787 664.874 569.773L735.906 505.306C735.98 505.242 736.028 505.154 736.044 505.056L751.947 416.547C751.951 416.531 751.947 416.513 751.947 416.493L751.949 416.497ZM725.307 416.914H750.756L685.229 532.217L667.292 563.774L725.307 416.916V416.914ZM735.201 504.755L666.325 567.264L695.209 516.44L750.623 418.939L735.201 504.757V504.755Z" fill="#343438"/>
<path d="M415.125 197.424C415.115 197.448 415.109 197.472 415.103 197.498C415.097 197.524 415.093 197.552 415.093 197.582C415.093 197.606 415.097 197.63 415.099 197.652C415.103 197.682 415.111 197.71 415.121 197.736C415.129 197.759 415.139 197.779 415.153 197.799C415.169 197.827 415.185 197.849 415.205 197.869C415.213 197.883 415.219 197.893 415.229 197.903C415.239 197.913 415.25 197.917 415.262 197.923C415.272 197.933 415.278 197.943 415.288 197.949C415.298 197.955 415.308 197.953 415.316 197.959C415.382 197.997 415.454 198.019 415.526 198.019C415.588 198.019 415.646 198.005 415.704 197.981C415.72 197.975 415.736 197.961 415.754 197.947C415.782 197.931 415.814 197.917 415.838 197.893L491.415 124.754C491.499 124.67 491.549 124.554 491.549 124.436V106.415C491.549 106.391 491.539 106.365 491.535 106.341C491.531 106.325 491.531 106.303 491.525 106.287C491.515 106.243 491.495 106.199 491.467 106.162C491.467 106.162 491.461 106.158 491.461 106.156C491.435 106.122 491.403 106.088 491.367 106.064C491.353 106.05 491.337 106.048 491.319 106.038C491.299 106.024 491.279 106.012 491.255 106H491.249C491.225 105.994 491.209 105.994 491.191 105.986C491.165 105.982 491.137 105.976 491.111 105.976C491.091 105.976 491.071 105.98 491.051 105.982C491.025 105.986 491.001 105.988 490.974 105.996C490.97 106 490.964 106 490.954 106L453.166 119.781C453.058 119.821 452.97 119.899 452.922 120L415.135 197.382C415.131 197.392 415.131 197.402 415.127 197.416L415.125 197.424ZM490.662 124.255L421.011 191.663L490.662 107.649V124.253V124.255ZM453.635 120.557L489.724 107.397L417.547 194.455L453.635 120.557Z" fill="#343438"/>
<path d="M629.756 75.585C629.75 75.6129 629.75 75.6349 629.746 75.6628C629.742 75.6908 629.742 75.7127 629.746 75.7367C629.75 75.7627 629.756 75.7866 629.762 75.8146C629.772 75.8385 629.778 75.8625 629.788 75.8844C629.794 75.8904 629.794 75.8984 629.794 75.9044C629.8 75.9144 629.814 75.9184 629.822 75.9284C629.836 75.9523 629.848 75.9783 629.872 76.0022C629.888 76.0182 629.912 76.0262 629.932 76.0422C629.948 76.0521 629.962 76.0661 629.982 76.0721C630.041 76.102 630.109 76.126 630.177 76.126C630.227 76.126 630.279 76.116 630.325 76.0961H630.331L701.837 49.0671C702.038 48.9892 702.154 48.7796 702.114 48.568L696.815 21.539C696.811 21.523 696.799 21.509 696.791 21.489C696.777 21.4491 696.757 21.4112 696.733 21.3753C696.717 21.3513 696.695 21.3313 696.675 21.3114C696.661 21.2974 696.651 21.2774 696.635 21.2674L680.199 9.60858C680.008 9.47083 679.738 9.51076 679.592 9.70042L629.826 75.4193C629.82 75.4293 629.82 75.4353 629.812 75.4472C629.796 75.4712 629.786 75.4951 629.776 75.5211C629.766 75.5411 629.756 75.565 629.752 75.589L629.756 75.585ZM632.555 74.3133L696.092 22.4333L701.18 48.3743L632.555 74.3153V74.3133ZM680.042 10.5748L695.655 21.6508L632.765 73.0057L680.042 10.5748Z" fill="#343438"/>
<path d="M673.748 275.784L648.304 315.003C648.236 315.107 648.216 315.235 648.25 315.356L653.55 335.496C653.6 335.683 653.765 335.819 653.961 335.823C653.965 335.827 653.971 335.827 653.977 335.827C654.167 335.827 654.335 335.705 654.394 335.526L674.534 276.165C674.608 275.956 674.51 275.724 674.313 275.626C674.111 275.529 673.867 275.596 673.746 275.784H673.748ZM654.033 333.851L649.155 315.32L672.567 279.234L654.033 333.849V333.851Z" fill="#343438"/>
<path d="M774.211 441.268C774.211 441.248 774.205 441.234 774.197 441.214C774.183 441.174 774.167 441.134 774.143 441.092C774.137 441.086 774.137 441.072 774.129 441.066C774.123 441.06 774.115 441.06 774.109 441.052C774.075 441.013 774.036 440.979 773.988 440.951C773.982 440.951 773.978 440.945 773.968 440.937C773.92 440.917 773.87 440.903 773.812 440.897H762.646C762.422 440.897 762.234 441.058 762.206 441.282L751.074 527.186C751.074 527.202 751.08 527.22 751.08 527.234C751.076 527.268 751.08 527.294 751.084 527.326C751.088 527.35 751.094 527.37 751.104 527.394C751.114 527.424 751.124 527.448 751.142 527.472C751.156 527.492 751.168 527.512 751.182 527.532C751.202 527.552 751.222 527.572 751.242 527.586C751.262 527.606 751.282 527.619 751.306 527.629C751.316 527.635 751.33 527.645 751.34 527.653C751.354 527.657 751.37 527.657 751.384 527.659C751.398 527.665 751.412 527.673 751.432 527.679C751.458 527.685 751.486 527.685 751.512 527.685C751.579 527.685 751.643 527.665 751.701 527.637C751.715 527.631 751.727 527.624 751.741 527.618C751.799 527.58 751.849 527.538 751.883 527.48C751.887 527.476 751.889 527.476 751.889 527.476L778.391 484.52C778.444 484.44 778.464 484.344 778.458 484.246L774.215 441.294C774.215 441.28 774.211 441.274 774.209 441.268H774.211ZM763.035 441.781H773.209L752.863 520.287L763.035 441.781ZM752.678 524.519L765.17 476.319L773.584 443.851L777.564 484.186L752.678 524.519Z" fill="#343438"/>
<path d="M530.78 49.6081C530.82 49.622 530.864 49.628 530.908 49.628C531.054 49.628 531.191 49.5542 531.275 49.4284L554.354 14.911C554.466 14.7453 554.452 14.5237 554.316 14.3739C554.183 14.2222 553.965 14.1823 553.783 14.2721L530.708 25.9989C530.56 26.0727 530.464 26.2245 530.464 26.3941V49.1848C530.464 49.3765 530.592 49.5502 530.778 49.6061L530.78 49.6081ZM531.349 26.6657L552.677 15.8253L531.349 47.7295V26.6657Z" fill="#343438"/>
<path d="M891.817 175.438C891.823 175.412 891.831 175.38 891.831 175.35C891.831 175.334 891.835 175.312 891.831 175.296C891.831 175.282 891.835 175.272 891.831 175.258C891.831 175.252 891.821 175.244 891.821 175.238C891.807 175.168 891.781 175.097 891.731 175.039C891.731 175.035 891.727 175.035 891.725 175.033C891.719 175.027 891.711 175.023 891.705 175.017C891.651 174.963 891.588 174.927 891.516 174.905C891.51 174.905 891.506 174.899 891.5 174.895L873.538 170.655C873.397 170.621 873.249 170.661 873.143 170.756L826.072 213.156C826.062 213.166 826.056 213.176 826.048 213.186C826.028 213.205 826.014 213.229 826 213.249C825.984 213.273 825.97 213.297 825.96 213.319C825.954 213.343 825.946 213.367 825.94 213.393C825.934 213.421 825.93 213.443 825.93 213.475C825.93 213.499 825.934 213.523 825.936 213.549C825.94 213.575 825.946 213.603 825.952 213.629C825.958 213.643 825.958 213.653 825.966 213.667C825.966 213.677 825.98 213.681 825.982 213.687C825.992 213.707 825.996 213.727 826.01 213.745C826.034 213.774 826.068 213.792 826.094 213.814C826.114 213.828 826.128 213.848 826.148 213.862C826.216 213.9 826.29 213.922 826.364 213.922C826.412 213.922 826.462 213.916 826.505 213.898L873.161 197.999C873.235 197.973 873.303 197.925 873.357 197.863L891.735 175.604C891.735 175.604 891.741 175.584 891.749 175.578C891.769 175.548 891.789 175.52 891.803 175.488C891.809 175.472 891.809 175.458 891.817 175.438ZM873.56 171.569L890.222 175.502L842.484 203.517L829.89 210.904L873.56 171.571V171.569ZM872.758 197.204L830.345 211.66L873.273 186.468L889.463 176.971L872.758 197.204Z" fill="#343438"/>
<path d="M833.854 291.711C833.854 291.711 833.848 291.707 833.848 291.705C833.828 291.645 833.788 291.591 833.746 291.548C833.736 291.538 833.73 291.532 833.718 291.524C833.678 291.486 833.634 291.46 833.582 291.44C833.568 291.436 833.562 291.436 833.548 291.434C833.542 291.434 833.542 291.428 833.534 291.428L805.683 284.858C805.565 284.832 805.439 284.854 805.335 284.922C805.232 284.991 805.164 285.101 805.146 285.225L797.654 335.32C797.65 335.336 797.654 335.35 797.654 335.368V335.432C797.66 335.462 797.668 335.49 797.674 335.516C797.68 335.536 797.684 335.556 797.694 335.576C797.708 335.602 797.728 335.63 797.748 335.658C797.754 335.668 797.761 335.681 797.771 335.691C797.775 335.695 797.777 335.695 797.781 335.697C797.819 335.735 797.861 335.767 797.909 335.787C797.913 335.791 797.915 335.791 797.915 335.791C797.969 335.815 798.029 335.829 798.091 335.829C798.145 335.829 798.203 335.813 798.257 335.789C798.273 335.785 798.287 335.775 798.301 335.769C798.321 335.759 798.339 335.753 798.355 335.739L833.696 309.287C833.808 309.203 833.872 309.072 833.872 308.934V291.857C833.872 291.809 833.866 291.763 833.852 291.719V291.715L833.854 291.711ZM805.95 285.826L832.646 292.122L824.82 301.765L798.77 333.851L805.952 285.826H805.95ZM800.685 332.891L832.993 293.103V308.708L800.685 332.891Z" fill="#343438"/>
<path d="M778.417 236.377L765.162 209.051C765.124 208.971 765.06 208.905 764.986 208.861L739.009 194.022H739.003C738.956 193.996 738.91 193.974 738.858 193.968C738.834 193.964 738.808 193.968 738.784 193.968H738.754C738.676 193.974 738.606 194.002 738.544 194.042C738.54 194.046 738.53 194.046 738.528 194.048C738.524 194.052 738.524 194.054 738.518 194.058C738.478 194.092 738.438 194.132 738.41 194.182L673.74 305.48C673.706 305.534 673.686 305.594 673.68 305.656L671.619 324.641C671.619 324.641 671.623 324.655 671.623 324.661C671.619 324.675 671.623 324.685 671.623 324.699C671.623 324.763 671.637 324.823 671.667 324.877C671.671 324.883 671.667 324.893 671.671 324.901C671.675 324.905 671.677 324.905 671.677 324.907C671.711 324.965 671.761 325.015 671.819 325.053C671.833 325.059 671.845 325.067 671.859 325.073C671.875 325.083 671.893 325.097 671.913 325.103C671.961 325.119 672.007 325.129 672.06 325.129H685.311C685.423 325.129 685.531 325.085 685.615 325.007L778.327 236.887C778.327 236.887 778.333 236.871 778.341 236.863C778.375 236.829 778.401 236.789 778.423 236.745C778.429 236.729 778.436 236.715 778.438 236.697C778.454 236.649 778.462 236.599 778.458 236.549C778.458 236.543 778.462 236.535 778.462 236.525V236.521C778.456 236.471 778.442 236.419 778.419 236.373L778.417 236.377ZM764.427 209.56L776.923 235.315L743.424 213.213L739.441 195.284L764.429 209.56H764.427ZM674.55 305.848L738.606 195.605L742.56 213.403L722.318 245.114L672.701 322.863L674.55 305.848ZM685.134 324.25H672.863L743.165 214.102L777.314 236.635L685.134 324.25Z" fill="#343438"/>
<path d="M627.152 145.68C627.158 145.71 627.158 145.738 627.168 145.764C627.172 145.778 627.172 145.79 627.174 145.802C627.18 145.818 627.19 145.832 627.2 145.85C627.204 145.86 627.204 145.874 627.21 145.88C627.216 145.886 627.22 145.886 627.224 145.893C627.262 145.947 627.308 145.991 627.366 146.025C627.372 146.031 627.386 146.035 627.396 146.039C627.453 146.069 627.519 146.089 627.587 146.089C627.627 146.089 627.667 146.083 627.711 146.069L758.53 106.85C758.546 106.844 758.554 106.83 758.57 106.824C758.586 106.818 758.604 106.82 758.62 106.814C758.654 106.794 758.684 106.766 758.712 106.736C758.716 106.732 758.722 106.732 758.722 106.73C758.77 106.681 758.802 106.619 758.82 106.551C758.824 106.545 758.83 106.541 758.83 106.531C758.834 106.525 758.83 106.521 758.83 106.515C758.844 106.455 758.846 106.393 758.834 106.333L751.941 75.5929C751.917 75.4891 751.861 75.3973 751.773 75.3334L731.629 60.4923C731.585 60.4624 731.539 60.4424 731.487 60.4284C731.483 60.4244 731.483 60.4224 731.481 60.4224C731.475 60.4224 731.465 60.4264 731.457 60.4224C731.407 60.4125 731.355 60.4125 731.302 60.4185C731.288 60.4224 731.272 60.4224 731.254 60.4244C731.2 60.4384 731.146 60.4624 731.098 60.4943C731.094 60.4983 731.092 60.5003 731.092 60.5043H731.086L627.304 145.303C627.304 145.303 627.294 145.319 627.284 145.327C627.268 145.346 627.25 145.366 627.236 145.386C627.216 145.41 627.202 145.43 627.188 145.454C627.178 145.478 627.172 145.502 627.164 145.524C627.158 145.552 627.15 145.578 627.148 145.604V145.678L627.152 145.68ZM697.314 113.482L742.945 92.113L757.56 106.217L633.222 143.494L697.316 113.482H697.314ZM731.174 61.5744L741.978 90.0567L742.472 91.3544L678.318 121.4L630.62 143.735L731.176 61.5744H731.174ZM757.653 105.083L743.41 91.3364L732.314 62.0914L751.118 75.9443L757.651 105.085L757.653 105.083Z" fill="#343438"/>
<path d="M720.483 49.109C720.477 49.1389 720.473 49.1689 720.473 49.1988C720.477 49.2188 720.479 49.2427 720.483 49.2627C720.489 49.2926 720.497 49.3226 720.509 49.3525C720.513 49.3625 720.513 49.3725 720.515 49.3805C720.521 49.3905 720.529 49.3945 720.531 49.4005C720.545 49.4204 720.555 49.4444 720.568 49.4643C720.588 49.4903 720.622 49.5043 720.648 49.5242C720.664 49.5382 720.682 49.5542 720.702 49.5642C720.762 49.6021 720.834 49.6221 720.908 49.6221V49.626H720.912V49.6221C720.97 49.6221 721.026 49.6121 721.088 49.5881L800.601 15.0707C800.762 15.0008 800.866 14.8411 800.866 14.6654V3.60747C800.866 3.59749 800.862 3.5935 800.862 3.58352C800.858 3.55357 800.858 3.52362 800.852 3.49168C800.842 3.46174 800.828 3.43778 800.814 3.40983C800.808 3.39985 800.804 3.38587 800.8 3.37589C800.762 3.318 800.712 3.27408 800.659 3.23814C800.653 3.23415 800.653 3.22816 800.645 3.22417C800.639 3.21818 800.629 3.22017 800.621 3.21818C800.561 3.18823 800.497 3.16428 800.421 3.16428H760.66C760.537 3.16428 760.415 3.21818 760.329 3.316L720.568 48.8954C720.568 48.8954 720.568 48.9014 720.563 48.9014C720.549 48.9213 720.543 48.9413 720.529 48.9613C720.515 48.9892 720.495 49.0152 720.489 49.0411C720.483 49.0611 720.483 49.081 720.475 49.105L720.483 49.109ZM728.033 45.6113L799.986 4.36809V14.3779L728.033 45.6093V45.6113ZM760.87 4.04867H798.768L722.971 47.4939L760.868 4.04867H760.87Z" fill="#343438"/>
<path d="M511.117 251.804C511.117 251.804 511.131 251.813 511.131 251.819C511.169 251.877 511.211 251.927 511.273 251.965C511.283 251.971 511.293 251.975 511.303 251.981C511.327 251.995 511.353 252.007 511.381 252.019C511.421 252.033 511.469 252.039 511.509 252.039H530.91C531.067 252.039 531.217 251.951 531.291 251.815L591.804 145.864C591.898 145.706 591.878 145.506 591.764 145.364L586.587 139.004C586.567 138.98 586.537 138.966 586.513 138.946C586.489 138.93 586.473 138.908 586.449 138.898C586.401 138.872 586.347 138.86 586.297 138.854C586.281 138.854 586.263 138.84 586.243 138.84H553.989C553.823 138.84 553.671 138.932 553.597 139.076L511.117 220.698C511.083 220.762 511.067 220.832 511.067 220.904V251.596C511.067 251.664 511.087 251.724 511.115 251.782C511.119 251.788 511.119 251.798 511.119 251.802L511.117 251.804ZM530.652 251.157H512.331L583.651 143.977L586.279 140.028L590.888 145.692L530.654 251.159L530.652 251.157ZM554.256 139.727H585.417L511.948 250.135V221.013L554.254 139.727H554.256Z" fill="#343438"/>
<path d="M386.826 175.44C386.83 175.46 386.838 175.48 386.844 175.498C386.854 175.522 386.868 175.546 386.882 175.568C386.892 175.584 386.906 175.602 386.92 175.616C386.926 175.622 386.93 175.632 386.936 175.64C386.944 175.65 386.958 175.654 386.968 175.66C386.994 175.684 387.02 175.699 387.05 175.717C387.07 175.727 387.09 175.733 387.112 175.741C387.126 175.745 387.136 175.755 387.149 175.757C387.181 175.763 387.213 175.767 387.245 175.767C387.309 175.767 387.377 175.751 387.437 175.723L411.549 164.065C411.688 163.997 411.782 163.859 411.794 163.703L415.967 115.061V115.055C415.967 115.055 415.963 115.039 415.963 115.031C415.963 114.988 415.963 114.948 415.953 114.906C415.948 114.886 415.937 114.868 415.93 114.848C415.918 114.822 415.91 114.794 415.892 114.77C415.878 114.75 415.858 114.732 415.842 114.716C415.826 114.7 415.814 114.678 415.794 114.666L415.788 114.662C415.768 114.648 415.746 114.642 415.726 114.632C415.7 114.618 415.676 114.602 415.648 114.594C415.644 114.594 415.642 114.59 415.64 114.59C415.624 114.584 415.604 114.586 415.588 114.586C415.558 114.58 415.528 114.576 415.498 114.576C415.476 114.58 415.454 114.586 415.432 114.59C415.406 114.596 415.38 114.6 415.354 114.614C415.33 114.62 415.313 114.634 415.293 114.648C415.275 114.662 415.255 114.668 415.237 114.682L386.954 138.95C386.856 139.03 386.8 139.156 386.8 139.284V175.326C386.8 175.336 386.806 175.346 386.806 175.36C386.81 175.388 386.812 175.414 386.822 175.442L386.826 175.44ZM410.937 163.376L388.174 174.384L408.258 131.56L414.877 117.447L410.937 163.374V163.376ZM387.689 139.487L414.256 116.694L387.689 173.344V139.487Z" fill="#343438"/>
<path d="M610.493 145.275C610.483 145.281 610.469 145.289 610.459 145.295L585.97 164.378C585.862 164.458 585.798 164.588 585.798 164.725V205.004C585.798 205.038 585.808 205.064 585.814 205.094C585.818 205.114 585.818 205.134 585.824 205.152C585.84 205.2 585.864 205.246 585.898 205.284C585.904 205.29 585.912 205.294 585.914 205.3C585.944 205.334 585.978 205.36 586.018 205.384C586.018 205.384 586.022 205.388 586.024 205.388C586.03 205.394 586.038 205.392 586.044 205.394C586.078 205.41 586.112 205.428 586.152 205.438C586.177 205.442 586.205 205.444 586.235 205.444H586.239C586.317 205.444 586.391 205.418 586.459 205.376C586.483 205.362 586.497 205.346 586.517 205.328C586.543 205.304 586.575 205.29 586.597 205.26L611.082 171.339C611.136 171.266 611.166 171.174 611.166 171.082V145.64C611.166 145.624 611.16 145.606 611.156 145.592C611.156 145.562 611.15 145.532 611.142 145.504C611.136 145.484 611.126 145.464 611.116 145.446C611.102 145.418 611.092 145.396 611.076 145.376C611.062 145.356 611.046 145.343 611.028 145.327C611.014 145.313 611.008 145.301 610.99 145.287C610.984 145.283 610.976 145.281 610.97 145.277C610.95 145.263 610.93 145.253 610.906 145.243C610.886 145.233 610.858 145.223 610.832 145.215C610.826 145.211 610.818 145.209 610.812 145.205C610.798 145.201 610.786 145.205 610.772 145.205C610.742 145.201 610.712 145.201 610.684 145.205C610.664 145.205 610.644 145.209 610.626 145.211C610.596 145.217 610.569 145.227 610.543 145.241C610.527 145.247 610.509 145.257 610.489 145.267L610.493 145.275ZM586.683 164.941L609.684 147.017L586.683 202.772V164.939V164.941ZM610.287 170.942L588.082 201.698L588.676 200.261L610.287 147.874V170.94V170.942Z" fill="#343438"/>
<path d="M833.003 98.0043C833.007 98.0303 833.009 98.0622 833.023 98.0882C833.023 98.0982 833.023 98.1082 833.027 98.1141C833.031 98.1241 833.041 98.1281 833.043 98.1381C833.057 98.1581 833.063 98.182 833.077 98.202C833.097 98.2319 833.131 98.2499 833.159 98.2719C833.179 98.2858 833.193 98.3058 833.213 98.3198C833.281 98.3577 833.355 98.3837 833.436 98.3837C833.484 98.3837 833.526 98.3777 833.57 98.3637L877.814 84.0536C877.891 84.0277 877.965 83.9798 878.019 83.9159L891.735 67.4877C891.741 67.4777 891.741 67.4677 891.749 67.4577C891.769 67.4338 891.783 67.4078 891.797 67.3799C891.803 67.3639 891.811 67.3459 891.813 67.33C891.823 67.302 891.827 67.2721 891.829 67.2461C891.829 67.2261 891.833 67.2082 891.833 67.1882C891.833 67.1822 891.837 67.1742 891.837 67.1642C891.833 67.1583 891.827 67.1503 891.823 67.1443C891.813 67.0704 891.789 66.9966 891.743 66.9327C891.739 66.9327 891.739 66.9287 891.739 66.9287H891.735C891.687 66.8648 891.621 66.8249 891.546 66.7969C891.54 66.7929 891.532 66.7869 891.526 66.7829L871.446 60.4245C871.29 60.3746 871.122 60.4145 871.006 60.5283L833.121 97.629C833.121 97.629 833.115 97.639 833.107 97.643C833.091 97.663 833.081 97.6869 833.063 97.7109C833.049 97.7308 833.033 97.7548 833.025 97.7788C833.011 97.8027 833.011 97.8267 833.005 97.8486C832.999 97.8746 832.991 97.9025 832.991 97.9285C832.991 97.9544 832.995 97.9764 832.997 98.0023L833.003 98.0043ZM877.418 83.2511L838.097 95.974L889.611 68.6516L877.418 83.2531V83.2511ZM871.434 61.3448L890.258 67.308L835.924 96.1218L871.434 61.3448Z" fill="#343438"/>
<path d="M90.1023 772.563C90.1083 772.583 90.1143 772.603 90.1243 772.621C90.1422 772.655 90.1662 772.685 90.1941 772.713C90.2021 772.719 90.2101 772.733 90.2201 772.743C90.26 772.777 90.306 772.803 90.3539 772.821C90.3539 772.825 90.3579 772.825 90.3599 772.827C90.3758 772.833 90.3978 772.831 90.4158 772.833C90.4417 772.839 90.4657 772.849 90.4937 772.849H90.5096C90.5895 772.849 90.6634 772.825 90.7293 772.785C90.7373 772.779 90.7473 772.779 90.7552 772.771C90.8171 772.731 90.8651 772.669 90.899 772.603C90.903 772.597 90.911 772.597 90.915 772.587L125.226 694.898C125.27 694.796 125.274 694.687 125.24 694.577L118.537 674.651C118.537 674.651 118.533 674.645 118.531 674.641C118.523 674.617 118.509 674.597 118.497 674.577C118.485 674.557 118.477 674.537 118.463 674.519C118.445 674.495 118.423 674.479 118.399 674.459C118.387 674.449 118.377 674.439 118.363 674.429C118.357 674.423 118.351 674.415 118.345 674.413C118.319 674.399 118.293 674.393 118.267 674.383C118.259 674.383 118.249 674.377 118.241 674.373C118.211 674.363 118.181 674.359 118.149 674.357C118.135 674.357 118.122 674.353 118.11 674.352C118.104 674.352 118.096 674.357 118.09 674.357C118.066 674.357 118.044 674.363 118.022 674.371C117.996 674.375 117.974 674.377 117.952 674.391C117.932 674.397 117.914 674.411 117.894 674.417C117.872 674.431 117.85 674.443 117.832 674.465C117.826 674.469 117.818 674.471 117.812 674.479L78.2293 712.838C78.1214 712.942 78.0735 713.095 78.1055 713.243L90.0823 772.5C90.0863 772.526 90.0983 772.547 90.1083 772.567L90.1023 772.563ZM92.6462 766.478L107.447 714.139L118.151 676.282L124.346 694.699L92.6462 766.478ZM117.243 676.25L109.481 703.698L90.5815 770.533L79.012 713.301L117.245 676.25H117.243Z" fill="#343438"/>
<path d="M777.803 145.646C777.803 149.623 774.579 152.851 770.601 152.851C766.623 152.851 763.395 149.623 763.395 145.646C763.395 141.669 766.619 138.441 770.601 138.441C774.583 138.441 777.803 141.665 777.803 145.646Z" fill="#343438"/>
<path d="M303.575 324.689C303.575 328.666 300.35 331.89 296.37 331.89C292.391 331.89 289.166 328.666 289.166 324.689C289.166 320.713 292.391 317.484 296.37 317.484C300.35 317.484 303.575 320.709 303.575 324.689Z" fill="#343438"/>
<path d="M617.934 640.836C617.934 644.815 614.71 648.041 610.728 648.041C606.746 648.041 603.521 644.817 603.521 640.836C603.521 636.855 606.746 633.631 610.728 633.631C614.71 633.631 617.934 636.859 617.934 640.836Z" fill="#343438"/>
<path d="M404.6 535.146C404.6 540.117 400.566 544.152 395.594 544.152C390.622 544.152 386.588 540.119 386.588 535.146C386.588 530.173 390.62 526.144 395.594 526.144C400.568 526.144 404.6 530.175 404.6 535.146Z" fill="#343438"/>
<path d="M444.472 324.689C444.472 329.66 440.44 333.691 435.466 333.691C430.492 333.691 426.463 329.66 426.463 324.689C426.463 319.718 430.494 315.684 435.466 315.684C440.438 315.684 444.472 319.718 444.472 324.689Z" fill="#343438"/>
<path d="M275.701 554.613C275.701 559.584 271.67 563.618 266.696 563.618C261.722 563.618 257.692 559.586 257.692 554.613C257.692 549.64 261.724 545.611 266.696 545.611C271.668 545.611 275.701 549.642 275.701 554.613Z" fill="#343438"/>
<path d="M724.792 319.485C724.792 323.462 721.567 326.686 717.59 326.686C713.612 326.686 710.383 323.462 710.383 319.485C710.383 315.508 713.608 312.28 717.59 312.28C721.571 312.28 724.792 315.504 724.792 319.485Z" fill="#343438"/>
<path d="M347.159 416.397C347.159 420.376 343.934 423.602 339.955 423.602C335.975 423.602 332.75 420.378 332.75 416.397C332.75 412.416 335.975 409.196 339.955 409.196C343.934 409.196 347.159 412.42 347.159 416.397Z" fill="#343438"/>
<path d="M132.023 460.978C132.023 464.955 128.798 468.183 124.819 468.183C120.839 468.183 117.614 464.955 117.614 460.978C117.614 457.002 120.839 453.773 124.819 453.773C128.798 453.773 132.023 456.998 132.023 460.978Z" fill="#343438"/>
<path d="M174.679 569.448C174.679 573.428 171.454 576.653 167.474 576.653C163.495 576.653 160.27 573.428 160.27 569.448C160.27 565.467 163.495 562.247 167.474 562.247C171.454 562.247 174.679 565.471 174.679 569.448Z" fill="#343438"/>
<path d="M498.31 441.504C498.31 445.484 495.085 448.709 491.103 448.709C487.122 448.709 483.901 445.484 483.901 441.504C483.901 437.523 487.126 434.307 491.103 434.307C495.081 434.307 498.31 437.531 498.31 441.504Z" fill="#343438"/>
<path d="M518.713 593.556C518.713 597.533 515.488 600.757 511.507 600.757C507.525 600.757 504.3 597.533 504.3 593.556C504.3 589.579 507.525 586.351 511.507 586.351C515.488 586.351 518.713 589.575 518.713 593.556Z" fill="#343438"/>
<path d="M634.79 145.646C634.79 149.623 631.565 152.851 627.587 152.851C623.61 152.851 620.385 149.623 620.385 145.646C620.385 141.669 623.61 138.441 627.587 138.441C631.565 138.441 634.79 141.665 634.79 145.646Z" fill="#343438"/>
<path d="M394.452 245.884C394.452 249.861 391.227 253.085 387.247 253.085C383.268 253.085 380.041 249.861 380.041 245.884C380.041 241.907 383.268 238.679 387.247 238.679C391.227 238.679 394.452 241.903 394.452 245.884Z" fill="#343438"/>
<path d="M113.89 578.871C113.89 582.055 111.31 584.63 108.125 584.63C104.94 584.63 102.365 582.053 102.365 578.871C102.365 575.688 104.944 573.109 108.125 573.109C111.306 573.109 113.89 575.686 113.89 578.871Z" fill="#343438"/>
<path d="M81.4698 653.889C81.4698 657.069 78.89 659.648 75.7051 659.648C72.5201 659.648 69.9423 657.069 69.9423 653.889C69.9423 650.708 72.5221 648.125 75.7051 648.125C78.888 648.125 81.4698 650.704 81.4698 653.889Z" fill="#343438"/>
<path d="M635.944 75.6868C635.944 78.867 633.366 81.4464 630.183 81.4464C627 81.4464 624.42 78.867 624.42 75.6868C624.42 72.5066 626.998 69.9232 630.183 69.9232C633.368 69.9232 635.944 72.5026 635.944 75.6868Z" fill="#343438"/>
<path d="M670.339 349.722C670.339 352.902 667.761 355.484 664.576 355.484C661.391 355.484 658.813 352.904 658.813 349.722C658.813 346.54 661.393 343.958 664.576 343.958C667.759 343.958 670.339 346.538 670.339 349.722Z" fill="#343438"/>
<path d="M638.534 197.584C638.534 200.768 635.956 203.347 632.773 203.347C629.59 203.347 627.01 200.768 627.01 197.584C627.01 194.4 629.588 191.822 632.773 191.822C635.958 191.822 638.534 194.402 638.534 197.584Z" fill="#343438"/>
<path d="M421.293 197.584C421.293 200.768 418.713 203.347 415.528 203.347C412.343 203.347 409.767 200.768 409.767 197.584C409.767 194.4 412.347 191.822 415.528 191.822C418.709 191.822 421.293 194.402 421.293 197.584Z" fill="#343438"/>
<path d="M387.265 213.483C387.265 216.671 384.685 219.247 381.502 219.247C378.32 219.247 375.74 216.669 375.74 213.483C375.74 210.297 378.32 207.723 381.502 207.723C384.685 207.723 387.265 210.303 387.265 213.483Z" fill="#343438"/>
<path d="M278.621 266.718C278.621 269.903 276.041 272.482 272.856 272.482C269.671 272.482 267.093 269.903 267.093 266.718C267.093 263.534 269.673 260.957 272.856 260.957C276.039 260.957 278.621 263.536 278.621 266.718Z" fill="#343438"/>
<path d="M670.339 569.448C670.339 572.632 667.761 575.211 664.576 575.211C661.391 575.211 658.813 572.632 658.813 569.448C658.813 566.263 661.393 563.688 664.576 563.688C667.759 563.688 670.339 566.267 670.339 569.448Z" fill="#343438"/>
<path d="M302.133 191.225C302.133 194.406 299.553 196.987 296.37 196.987C293.187 196.987 290.61 194.408 290.61 191.225C290.61 188.043 293.187 185.462 296.37 185.462C299.553 185.462 302.133 188.041 302.133 191.225Z" fill="#343438"/>
<path d="M755.109 527.534C754.948 529.52 753.211 530.997 751.224 530.836C749.241 530.678 747.763 528.939 747.921 526.953C748.079 524.966 749.82 523.489 751.805 523.651C753.792 523.808 755.269 525.545 755.111 527.534H755.109Z" fill="#343438"/>
<path d="M755.109 416.687C754.948 418.669 753.211 420.15 751.224 419.993C749.241 419.831 747.763 418.094 747.921 416.108C748.079 414.125 749.82 412.644 751.805 412.806C753.792 412.963 755.269 414.704 755.111 416.689L755.109 416.687Z" fill="#343438"/>
<path d="M801.687 333.983C801.529 335.965 799.788 337.446 797.803 337.289C795.821 337.127 794.335 335.39 794.497 333.404C794.658 331.421 796.396 329.94 798.382 330.102C800.365 330.259 801.843 332 801.685 333.985L801.687 333.983Z" fill="#343438"/>
<path d="M746.629 213.772C746.467 215.759 744.726 217.24 742.743 217.078C740.758 216.921 739.283 215.18 739.441 213.193C739.598 211.211 741.339 209.73 743.324 209.891C745.311 210.053 746.789 211.79 746.631 213.774L746.629 213.772Z" fill="#343438"/>
<path d="M781.615 236.859C781.457 238.845 779.716 240.322 777.731 240.165C775.747 240.003 774.263 238.266 774.425 236.28C774.586 234.297 776.324 232.816 778.31 232.978C780.295 233.135 781.771 234.876 781.613 236.861L781.615 236.859Z" fill="#343438"/>
<path d="M831.378 212.255C831.216 214.238 829.475 215.719 827.492 215.557C825.507 215.399 824.023 213.659 824.185 211.674C824.347 209.688 826.088 208.211 828.071 208.368C830.054 208.53 831.531 210.271 831.378 212.253V212.255Z" fill="#343438"/>
<path d="M837.033 292.142C836.871 294.129 835.134 295.606 833.147 295.448C831.164 295.287 829.682 293.55 829.84 291.563C830.002 289.579 831.743 288.1 833.726 288.261C835.711 288.423 837.186 290.16 837.033 292.144V292.142Z" fill="#343438"/>
<path d="M515.101 249.815C514.943 251.797 513.202 253.279 511.217 253.121C509.23 252.959 507.753 251.219 507.91 249.236C508.072 247.254 509.809 245.772 511.796 245.934C513.781 246.092 515.257 247.833 515.099 249.817L515.101 249.815Z" fill="#343438"/>
<path d="M242.936 337.496C242.776 339.479 241.037 340.96 239.052 340.798C237.067 340.64 235.588 338.9 235.747 336.915C235.907 334.929 237.648 333.451 239.631 333.609C241.616 333.771 243.094 335.508 242.936 337.494V337.496Z" fill="#343438"/>
<path d="M185.907 350.013C185.747 351.996 184.008 353.473 182.023 353.315C180.038 353.154 178.559 351.417 178.718 349.433C178.878 347.446 180.619 345.969 182.602 346.127C184.587 346.288 186.067 348.025 185.907 350.011V350.013Z" fill="#343438"/>
<path d="M215.58 428.815C215.42 430.797 213.683 432.282 211.696 432.121C209.713 431.959 208.233 430.226 208.393 428.236C208.551 426.253 210.292 424.776 212.277 424.938C214.264 425.093 215.741 426.834 215.582 428.817L215.58 428.815Z" fill="#343438"/>
<path d="M128.413 391.732C128.253 393.718 126.514 395.196 124.529 395.038C122.546 394.876 121.065 393.139 121.224 391.153C121.384 389.171 123.125 387.693 125.108 387.851C127.093 388.013 128.573 389.749 128.413 391.734V391.732Z" fill="#343438"/>
<path d="M212.952 292.142C212.792 294.129 211.055 295.606 209.068 295.448C207.083 295.287 205.605 293.55 205.765 291.563C205.923 289.579 207.664 288.1 209.649 288.261C211.636 288.419 213.114 290.16 212.954 292.144L212.952 292.142Z" fill="#343438"/>
<path d="M94.1017 517.823C93.9419 519.806 92.2027 521.283 90.2179 521.125C88.2331 520.968 86.7534 519.227 86.9132 517.242C87.0709 515.256 88.8141 513.775 90.797 513.936C92.7818 514.098 94.2594 515.835 94.1017 517.821V517.823Z" fill="#343438"/>
<path d="M121.709 675.082C121.55 677.065 119.811 678.542 117.826 678.384C115.841 678.226 114.361 676.486 114.519 674.501C114.681 672.515 116.42 671.037 118.405 671.195C120.39 671.357 121.867 673.098 121.709 675.08V675.082Z" fill="#343438"/>
<path d="M251.746 689.336C251.586 691.319 249.847 692.8 247.86 692.642C245.877 692.481 244.396 690.74 244.555 688.757C244.715 686.773 246.456 685.294 248.439 685.451C250.424 685.613 251.904 687.354 251.744 689.336H251.746Z" fill="#343438"/>
<path d="M390.167 593.845C390.007 595.828 388.268 597.305 386.283 597.147C384.296 596.986 382.818 595.249 382.978 593.264C383.138 591.278 384.879 589.797 386.862 589.958C388.847 590.12 390.326 591.857 390.167 593.843V593.845Z" fill="#343438"/>
<path d="M379.715 661.525C379.556 663.507 377.816 664.984 375.832 664.827C373.847 664.669 372.367 662.928 372.527 660.944C372.687 658.957 374.428 657.476 376.411 657.638C378.395 657.799 379.875 659.536 379.715 661.523V661.525Z" fill="#343438"/>
<path d="M414.951 661.525C414.793 663.507 413.054 664.984 411.067 664.827C409.082 664.669 407.603 662.928 407.761 660.944C407.922 658.957 409.662 657.476 411.646 657.638C413.631 657.799 415.109 659.536 414.949 661.523L414.951 661.525Z" fill="#343438"/>
<path d="M646.968 454.394C646.807 456.379 645.069 457.854 643.083 457.7C641.1 457.539 639.622 455.798 639.78 453.815C639.938 451.833 641.679 450.356 643.664 450.509C645.65 450.671 647.128 452.412 646.97 454.394H646.968Z" fill="#343438"/>
<path d="M620.465 468.469C620.303 470.455 618.562 471.932 616.579 471.771C614.592 471.613 613.114 469.876 613.272 467.892C613.434 465.901 615.171 464.424 617.158 464.586C619.143 464.743 620.622 466.484 620.465 468.469Z" fill="#343438"/>
<path d="M690.439 499.279C690.277 501.263 688.536 502.739 686.553 502.581C684.57 502.423 683.089 500.682 683.246 498.698C683.408 496.712 685.149 495.234 687.132 495.392C689.115 495.554 690.597 497.29 690.439 499.277V499.279Z" fill="#343438"/>
<path d="M574.45 370.408C574.288 372.395 572.551 373.872 570.564 373.714C568.579 373.553 567.1 371.816 567.262 369.83C567.419 367.847 569.161 366.366 571.145 366.528C573.132 366.685 574.61 368.426 574.452 370.41L574.45 370.408Z" fill="#343438"/>
<path d="M668.174 246.172C668.013 248.158 666.272 249.635 664.289 249.478C662.306 249.316 660.824 247.579 660.982 245.593C661.144 243.61 662.885 242.133 664.868 242.291C666.851 242.448 668.328 244.189 668.174 246.174V246.172Z" fill="#343438"/>
<path d="M550.904 654.178C550.746 656.162 549.007 657.638 547.024 657.48C545.037 657.322 543.556 655.582 543.717 653.597C543.875 651.611 545.616 650.129 547.603 650.291C549.586 650.453 551.064 652.19 550.902 654.176L550.904 654.178Z" fill="#343438"/>
<path d="M677.713 589.012C677.551 590.999 675.814 592.476 673.827 592.314C671.845 592.156 670.367 590.42 670.525 588.431C670.682 586.445 672.424 584.968 674.409 585.129C676.395 585.287 677.877 587.028 677.715 589.012H677.713Z" fill="#343438"/>
<path d="M777.374 441.625C777.212 443.608 775.475 445.093 773.488 444.931C771.505 444.77 770.028 443.029 770.185 441.046C770.343 439.064 772.084 437.587 774.069 437.74C776.056 437.902 777.534 439.643 777.376 441.625H777.374Z" fill="#343438"/>
<path d="M589.834 175.898C589.676 177.883 587.939 179.362 585.95 179.2C583.965 179.039 582.486 177.302 582.643 175.318C582.805 173.331 584.546 171.854 586.529 172.012C588.516 172.173 589.994 173.91 589.832 175.897L589.834 175.898Z" fill="#343438"/>
<path d="M589.834 139.575C589.676 141.557 587.939 143.039 585.95 142.877C583.965 142.719 582.486 140.978 582.643 138.994C582.805 137.008 584.546 135.53 586.529 135.688C588.516 135.85 589.994 137.587 589.832 139.573L589.834 139.575Z" fill="#343438"/>
<path d="M506.758 145.931C506.597 147.918 504.855 149.399 502.873 149.237C500.888 149.08 499.408 147.339 499.566 145.353C499.728 143.37 501.465 141.893 503.452 142.05C505.434 142.212 506.916 143.949 506.758 145.933V145.931Z" fill="#343438"/>
<path d="M494.702 106.713C494.54 108.699 492.803 110.176 490.816 110.019C488.833 109.857 487.355 108.12 487.513 106.134C487.671 104.151 489.412 102.67 491.397 102.832C493.384 102.993 494.865 104.73 494.704 106.715L494.702 106.713Z" fill="#343438"/>
<path d="M419.124 115.307C418.965 117.293 417.227 118.771 415.241 118.613C413.256 118.451 411.774 116.714 411.934 114.728C412.096 112.746 413.835 111.264 415.82 111.426C417.804 111.584 419.282 113.325 419.122 115.309L419.124 115.307Z" fill="#343438"/>
<path d="M724.508 49.4763C724.35 51.4587 722.609 52.94 720.624 52.7783C718.642 52.6206 717.156 50.8798 717.318 48.8954C717.479 46.909 719.221 45.4316 721.203 45.5894C723.186 45.7511 724.664 47.4879 724.506 49.4743L724.508 49.4763Z" fill="#343438"/>
<path d="M803.816 3.89694C803.654 5.87935 801.913 7.36066 799.93 7.19895C797.947 7.04124 796.47 5.3004 796.627 3.31599C796.785 1.33359 798.526 -0.147728 800.511 0.00998606C802.498 0.171693 803.976 1.91254 803.818 3.89494L803.816 3.89694Z" fill="#343438"/>
<path d="M746.629 91.8774C746.467 93.8598 744.726 95.3372 742.743 95.1795C740.758 95.0177 739.283 93.2809 739.441 91.2965C739.598 89.3101 741.339 87.8328 743.324 87.9905C745.311 88.1522 746.789 89.889 746.631 91.8754L746.629 91.8774Z" fill="#343438"/>
<path d="M894.988 175.616C894.83 177.598 893.093 179.079 891.104 178.918C889.121 178.756 887.64 177.019 887.802 175.035C887.959 173.048 889.698 171.571 891.687 171.729C893.672 171.89 895.148 173.627 894.986 175.614L894.988 175.616Z" fill="#343438"/>
<path d="M837.033 98.2339C836.871 100.22 835.134 101.698 833.147 101.54C831.164 101.378 829.682 99.6414 829.84 97.655C830.002 95.6726 831.743 94.1913 833.726 94.353C835.711 94.5107 837.186 96.2515 837.033 98.2359V98.2339Z" fill="#343438"/>
</g>
<defs>
<clipPath id="clip0_1_5">
<rect width="895" height="693" fill="white"/>
</clipPath>
</defs>
</svg>
