<svg width="1440" height="814" viewBox="0 0 1440 814" fill="none" xmlns="http://www.w3.org/2000/svg">
<mask id="mask0_40_669" style="mask-type:alpha" maskUnits="userSpaceOnUse" x="0" y="0" width="1440" height="814">
<rect width="1440" height="814" fill="#D9D9D9"/>
</mask>
<g mask="url(#mask0_40_669)">
<mask id="mask1_40_669" style="mask-type:alpha" maskUnits="userSpaceOnUse" x="0" y="0" width="1440" height="814">
<rect width="1440" height="814" fill="#D9D9D9"/>
</mask>
<g mask="url(#mask1_40_669)">
<path d="M107.211 318L-312 809.164H526.427L107.211 318Z" fill="#29292D" fill-opacity="0.5"/>
<path d="M341.496 491L64.9951 814.478H618L341.496 491Z" fill="#29292D" fill-opacity="0.5"/>
<path d="M14.5008 445L-262 768.478H291.005L14.5008 445Z" fill="#29292D" fill-opacity="0.5"/>
<path d="M1333.79 318L1753 809.164H914.573L1333.79 318Z" fill="#29292D" fill-opacity="0.5"/>
<path d="M1099.5 491L1376 814.478H823L1099.5 491Z" fill="#29292D" fill-opacity="0.5"/>
<path d="M1426.5 445L1703 768.478H1149.99L1426.5 445Z" fill="#29292D" fill-opacity="0.5"/>
<g clip-path="url(#clip0_40_669)">
<g opacity="0.8">
<path d="M374.042 816.671L411.823 731.381L396.188 737.305L421.595 650.009H413.127L435.274 579L457.425 652.612L447.002 647.4L473.713 736.001L454.17 723.73L490 816.671H374.042Z" fill="#2D2D32"/>
<path d="M409.414 816.671L434.069 730.246L419.698 738.121L432.392 650.302L424.168 651.467L435.786 580.702L435.274 579L413.127 650.009H421.595L396.188 737.305L411.823 731.381L374.042 816.671H409.414Z" fill="#1E1E21"/>
<path d="M333.826 816.671L365.818 744.443L352.582 749.461L374.096 675.54H366.923L385.68 615.408L404.436 677.745L395.61 673.335L418.225 748.356L401.678 737.967L432.018 816.671H333.826Z" fill="#2D2D32"/>
<path d="M363.777 816.671L384.654 743.482L372.488 750.153L383.236 675.789L376.272 676.774L386.113 616.851L385.68 615.408L366.923 675.54H374.096L352.582 749.461L365.818 744.443L333.826 816.671H363.777Z" fill="#1D1D1F"/>
</g>
<g opacity="0.8">
<path d="M260.572 749.809L227.041 825.497C262.951 826.005 299.329 828.593 335.195 825.895L302.913 742.163L322.456 754.434L295.745 665.838L306.169 671.05L284.017 597.438L261.866 668.447H270.333L244.927 755.743L260.562 749.819L260.572 749.809Z" fill="#2D2D32"/>
<path d="M260.572 749.809L227.041 825.497C238.212 825.656 249.427 826.015 260.657 826.353L282.813 748.674L268.447 756.554L281.14 668.735L272.917 669.905L284.535 599.14L284.022 597.438L261.871 668.447H270.338L244.932 755.743L260.567 749.819L260.572 749.809Z" fill="#1D1D1F"/>
</g>
<g opacity="0.8">
<path d="M145.27 795.277L131.92 825.417H195.248L181.131 788.801L197.682 799.189L175.063 724.163L183.888 728.579L165.132 666.241L146.376 726.369H153.549L132.034 800.294L145.27 795.277Z" fill="#2D2D32"/>
<path d="M145.27 795.277L131.92 825.417H155.236L164.107 794.316L151.941 800.986L162.688 726.618L155.724 727.608L165.565 667.685L165.132 666.241L146.376 726.369H153.549L132.034 800.294L145.27 795.277Z" fill="#1F1F21"/>
</g>
<path d="M-14 816.671L23.7867 731.381L8.15133 737.305L33.5582 650.009H25.0859L47.2372 579L69.3836 652.612L58.965 647.4L85.671 736.001L66.1281 723.73L101.958 816.671H-14Z" fill="#2D2D32"/>
<path d="M21.3774 816.671L46.0276 730.246L31.6616 738.121L44.3501 650.302L36.1267 651.467L47.7499 580.702L47.2372 579L25.0859 650.009H33.5582L8.15133 737.305L23.7867 731.381L-14 816.671H21.3774Z" fill="#1D1D1F"/>
<path d="M43.9817 816.671L75.9742 744.443L62.7332 749.461L84.2523 675.54H77.0793L95.8357 615.408L114.592 677.745L105.766 673.335L128.381 748.356L111.834 737.967L142.174 816.671H43.9817Z" fill="#2D2D32"/>
<path d="M73.9334 816.671L94.8104 743.482L82.6446 750.153L93.3917 675.789L86.4277 676.774L96.2689 616.851L95.8358 615.408L77.0794 675.54H84.2524L62.7333 749.461L75.9743 744.443L43.9768 816.671H73.9334Z" fill="#1D1D1F"/>
</g>
<g clip-path="url(#clip1_40_669)">
<g opacity="0.8">
<path d="M1065.96 816.671L1028.18 731.381L1043.81 737.305L1018.41 650.009H1026.87L1004.73 579L982.575 652.612L992.998 647.4L966.287 736.001L985.83 723.73L950 816.671H1065.96Z" fill="#2D2D32"/>
<path d="M1030.59 816.671L1005.93 730.246L1020.3 738.121L1007.61 650.302L1015.83 651.467L1004.21 580.702L1004.73 579L1026.87 650.009H1018.41L1043.81 737.305L1028.18 731.381L1065.96 816.671H1030.59Z" fill="#1E1E21"/>
<path d="M1106.17 816.671L1074.18 744.443L1087.42 749.461L1065.9 675.54H1073.08L1054.32 615.408L1035.56 677.745L1044.39 673.335L1021.78 748.356L1038.32 737.967L1007.98 816.671H1106.17Z" fill="#2D2D32"/>
<path d="M1076.22 816.671L1055.35 743.482L1067.51 750.153L1056.76 675.789L1063.73 676.774L1053.89 616.851L1054.32 615.408L1073.08 675.54H1065.9L1087.42 749.461L1074.18 744.443L1106.17 816.671H1076.22Z" fill="#1D1D1F"/>
</g>
<g opacity="0.8">
<path d="M1179.43 749.809L1212.96 825.497C1177.05 826.005 1140.67 828.593 1104.81 825.895L1137.09 742.163L1117.54 754.434L1144.25 665.838L1133.83 671.05L1155.98 597.438L1178.13 668.447H1169.67L1195.07 755.743L1179.44 749.819L1179.43 749.809Z" fill="#2D2D32"/>
<path d="M1179.43 749.809L1212.96 825.497C1201.79 825.656 1190.57 826.015 1179.34 826.353L1157.19 748.674L1171.55 756.554L1158.86 668.735L1167.08 669.905L1155.46 599.14L1155.98 597.438L1178.13 668.447H1169.66L1195.07 755.743L1179.43 749.819L1179.43 749.809Z" fill="#1D1D1F"/>
</g>
<g opacity="0.8">
<path d="M1294.73 795.277L1308.08 825.417H1244.75L1258.87 788.801L1242.32 799.189L1264.94 724.163L1256.11 728.579L1274.87 666.241L1293.62 726.369H1286.45L1307.97 800.294L1294.73 795.277Z" fill="#2D2D32"/>
<path d="M1294.73 795.277L1308.08 825.417H1284.76L1275.89 794.316L1288.06 800.986L1277.31 726.618L1284.28 727.608L1274.43 667.685L1274.87 666.241L1293.62 726.369H1286.45L1307.97 800.294L1294.73 795.277Z" fill="#1F1F21"/>
</g>
<path d="M1454 816.671L1416.21 731.381L1431.85 737.305L1406.44 650.009H1414.91L1392.76 579L1370.62 652.612L1381.04 647.4L1354.33 736.001L1373.87 723.73L1338.04 816.671H1454Z" fill="#2D2D32"/>
<path d="M1418.62 816.671L1393.97 730.246L1408.34 738.121L1395.65 650.302L1403.87 651.467L1392.25 580.702L1392.76 579L1414.91 650.009H1406.44L1431.85 737.305L1416.21 731.381L1454 816.671H1418.62Z" fill="#1D1D1F"/>
<path d="M1396.02 816.671L1364.03 744.443L1377.27 749.461L1355.75 675.54H1362.92L1344.16 615.408L1325.41 677.745L1334.23 673.335L1311.62 748.356L1328.17 737.967L1297.83 816.671H1396.02Z" fill="#2D2D32"/>
<path d="M1366.07 816.671L1345.19 743.482L1357.36 750.153L1346.61 675.789L1353.57 676.774L1343.73 616.851L1344.16 615.408L1362.92 675.54H1355.75L1377.27 749.461L1364.03 744.443L1396.02 816.671H1366.07Z" fill="#1D1D1F"/>
</g>
</g>
<g clip-path="url(#clip2_40_669)">
<path d="M609.866 812.424C609.352 812.424 608.842 812.204 608.496 811.774L589.121 787.995C588.509 787.24 588.623 786.136 589.381 785.527C590.139 784.918 591.25 785.032 591.862 785.786L611.237 809.566C611.849 810.32 611.735 811.424 610.977 812.033C610.65 812.298 610.257 812.424 609.866 812.424Z" fill="#29292D"/>
<path d="M608.483 816.659H613.464V799.69H608.483V816.659Z" fill="#29292D"/>
<path d="M610.971 805.083H618.997V799.694H610.971V805.083Z" fill="#29292D"/>
<path d="M402.134 816.267C401.744 816.267 401.35 816.138 401.023 815.876C400.265 815.267 400.151 814.16 400.763 813.409L420.138 789.629C420.75 788.875 421.864 788.761 422.619 789.37C423.377 789.979 423.491 791.087 422.879 791.837L403.504 815.617C403.155 816.046 402.645 816.267 402.134 816.267Z" fill="#29292D"/>
<path d="M403.517 803.537H398.536V818.927H403.517V803.537Z" fill="#29292D"/>
<path d="M401.027 803.537H393V808.926H401.027V803.537Z" fill="#29292D"/>
<path d="M501.006 819.624V790.998H426.271V821L501.006 819.624Z" fill="#1F1F22"/>
<path d="M589.581 813.639V785.284L549.724 725L498.516 787.761V821L589.581 815.289V813.639Z" fill="#35353B"/>
<path d="M546 730.566L574.911 818.454H539.48V740.296L546 730.566Z" fill="#1F1F22"/>
<path d="M597.607 792.51L549.724 725L546 730.566L589.581 791.134L597.607 792.51Z" fill="#1F1F22"/>
<path d="M548.118 735.325L506.132 799.658H426V792.433L545.729 732L548.118 735.325Z" fill="#1F1F22"/>
<path d="M461.978 725H549.724L503.497 794.093L415.754 792.166L461.978 725Z" fill="#35353C"/>
</g>
</g>
<defs>
<clipPath id="clip0_40_669">
<rect width="504" height="235" fill="white" transform="translate(-14 579)"/>
</clipPath>
<clipPath id="clip1_40_669">
<rect width="504" height="235" fill="white" transform="matrix(-1 0 0 1 1454 579)"/>
</clipPath>
<clipPath id="clip2_40_669">
<rect width="226" height="89" fill="white" transform="translate(393 725)"/>
</clipPath>
</defs>
</svg>
